$MeshFormat
2.2 0 8
$EndMeshFormat
$PhysicalNames
1
2 1 "e"
$EndPhysicalNames
$Nodes
868
1 0 0 0
2 0 1 0
3 1 0 -0
4 1 1 -0
5 0 0.9599999999998334 0
6 0 0.9199999999996669 0
7 0 0.879999999999508 0
8 0 0.8399999999997222 0
9 0 0.7999999999999997 0
10 0 0.7600000000002772 0
11 0 0.7200000000005549 0
12 0 0.6800000000008324 0
13 0 0.6400000000011098 0
14 0 0.6000000000013872 0
15 0 0.5600000000016645 0
16 0 0.5200000000019419 0
17 0 0.4800000000019974 0
18 0 0.4400000000018309 0
19 0 0.4000000000016645 0
20 0 0.360000000001498 0
21 0 0.3200000000013316 0
22 0 0.2800000000011651 0
23 0 0.2400000000009987 0
24 0 0.2000000000008322 0
25 0 0.1600000000006658 0
26 0 0.1200000000004994 0
27 0 0.08000000000033292 0
28 0 0.04000000000016646 0
29 0.03999999999992186 0 0
30 0.07999999999984518 0 0
31 0.1199999999997832 0 0
32 0.1599999999996745 0 0
33 0.1999999999995579 0 0
34 0.2399999999994413 0 0
35 0.2799999999993247 0 0
36 0.3199999999992081 0 0
37 0.3599999999990915 0 0
38 0.3999999999989749 0 0
39 0.4399999999988584 0 0
40 0.4799999999987418 0 0
41 0.5199999999987361 0 0
42 0.5599999999988415 0 0
43 0.5999999999989468 0 0
44 0.6399999999990521 0 0
45 0.6799999999991574 0 0
46 0.7199999999992628 0 0
47 0.7599999999993681 0 0
48 0.7999999999994734 0 0
49 0.8399999999995788 0 0
50 0.8799999999996841 0 0
51 0.9199999999997894 0 0
52 0.9599999999998947 0 0
53 0.03999999999992186 1 0
54 0.07999999999984518 1 0
55 0.1199999999997832 1 0
56 0.1599999999996745 1 0
57 0.1999999999995579 1 0
58 0.2399999999994413 1 0
59 0.2799999999993247 1 0
60 0.3199999999992081 1 0
61 0.3599999999990915 1 0
62 0.3999999999989749 1 0
63 0.4399999999988584 1 0
64 0.4799999999987418 1 0
65 0.5199999999987361 1 0
66 0.5599999999988415 1 0
67 0.5999999999989468 1 0
68 0.6399999999990521 1 0
69 0.6799999999991574 1 0
70 0.7199999999992628 1 0
71 0.7599999999993681 1 0
72 0.7999999999994734 1 0
73 0.8399999999995788 1 0
74 0.8799999999996841 1 0
75 0.9199999999997894 1 0
76 0.9599999999998947 1 0
77 1 0.9599999999998334 0
78 1 0.9199999999996669 0
79 1 0.879999999999508 0
80 1 0.8399999999997222 0
81 1 0.7999999999999997 0
82 1 0.7600000000002772 0
83 1 0.7200000000005549 0
84 1 0.6800000000008324 0
85 1 0.6400000000011098 0
86 1 0.6000000000013872 0
87 1 0.5600000000016645 0
88 1 0.5200000000019419 0
89 1 0.4800000000019974 0
90 1 0.4400000000018309 0
91 1 0.4000000000016645 0
92 1 0.360000000001498 0
93 1 0.3200000000013316 0
94 1 0.2800000000011651 0
95 1 0.2400000000009987 0
96 1 0.2000000000008322 0
97 1 0.1600000000006658 0
98 1 0.1200000000004994 0
99 1 0.08000000000033292 0
100 1 0.04000000000016646 0
101 0.4941182854911346 0.4902648576850377 0
102 0.3023033712107435 0.6976654652184693 0
103 0.7054041031965255 0.7038477274778023 0
104 0.3042132072610213 0.293456972949439 0
105 0.7012987391671458 0.2952853592944721 0
106 0.5020032436078385 0.7734181003990452 0
107 0.22551183595091 0.4952291879342216 0
108 0.782406939282082 0.5011406551211862 0
109 0.4896503157558416 0.2126233448827465 0
110 0.1908582467999765 0.8389256241669056 0
111 0.8215584563839968 0.8504175464792187 0
112 0.1847537148116033 0.1639582878763197 0
113 0.8168917247416655 0.1674662913132466 0
114 0.4246612445129036 0.6386346474900869 0
115 0.6478535330568992 0.5775557930055213 0
116 0.3636187698963751 0.4406213491562838 0
117 0.5688675333958916 0.350370298913535 0
118 0.1562670309720347 0.6329100865459983 0
119 0.8453677300543366 0.6388283798868247 0
120 0.3600009239624432 0.8337538835694749 0
121 0.3587739791133094 0.1441804026215009 0
122 0.6407542607393932 0.8485788448118172 0
123 0.1507341290441215 0.3531510500902134 0
124 0.6464661060549848 0.1630571860662313 0
125 0.8339363598750353 0.3553115161922204 0
126 0.3188368148043638 0.5772487199514811 0
127 0.5497232557900816 0.6665239506862463 0
128 0.4048737288787138 0.3260810048301054 0
129 0.1223247820829501 0.5318985607325528 0
130 0.8874793501042466 0.5382365414158177 0
131 0.4594510625271145 0.884279775347008 0
132 0.4657811163525792 0.1142467747907366 0
133 0.1018456778735936 0.7265155961426067 0
134 0.2675131553670032 0.899775945385847 0
135 0.2573754427192916 0.1005303315153849 0
136 0.7522842081559058 0.8874068981749426 0
137 0.1257082507400827 0.2591149057270113 0
138 0.3954900445745512 0.7421889753056807 0
139 0.7495284551805224 0.6101171450412213 0
140 0.2681765744894701 0.3920983581324231 0
141 0.6100851748447977 0.2498917215302981 0
142 0.09980995763338403 0.8913526786385688 0
143 0.09483591367139263 0.1048221848473562 0
144 0.9094091787056426 0.8903792420783561 0
145 0.9043017415461838 0.1048593245279751 0
146 0.4067933776218425 0.527965567783753 0
147 0.4731867887742977 0.3866828109057414 0
148 0.6244345286999756 0.7465581839837852 0
149 0.7608859821093706 0.3725805161717007 0
150 0.5657050505925185 0.9046640890001192 0
151 0.1218855385850029 0.4296750529954955 0
152 0.9059553499902512 0.4336136531649473 0
153 0.5646695570670083 0.1242279505986792 0
154 0.1977395613449919 0.7509696772309832 0
155 0.7916857488121944 0.7407084427089267 0
156 0.201749873477247 0.2686908479014893 0
157 0.7959481381688089 0.2585558699853527 0
158 0.2862842407109548 0.7893936612416584 0
159 0.7222387601944665 0.7942104968594487 0
160 0.2777472382924847 0.2014717264602006 0
161 0.7261696105379036 0.199189157489759 0
162 0.5091530389308289 0.5959061105055142 0
163 0.5899295349033691 0.481538862623085 0
164 0.2278585437156141 0.623298046218199 0
165 0.3661326143944335 0.2544039318930918 0
166 0.3058160854818449 0.4873250627721107 0
167 0.6562088121864486 0.6552355788733594 0
168 0.5027956543729605 0.3034831213698468 0
169 0.6557651672407867 0.3545217001599935 0
170 0.09255437622339363 0.8147217382857979 0
171 0.9063103420933245 0.817379331846283 0
172 0.1792737749401578 0.9307696307366421 0
173 0.171146386946473 0.08446274596982459 0
174 0.8120939366678882 0.9142217621963782 0
175 0.1069654380628146 0.1787177952016433 0
176 0.8148622791824375 0.07793734850111309 0
177 0.8935409691905318 0.1797445076417212 0
178 0.3497645351071894 0.6603481835110858 0
179 0.48891370362313 0.7078954612714782 0
180 0.7137348244771414 0.5101620826854729 0
181 0.3518355959566803 0.3577179549502262 0
182 0.08224622208806613 0.6249838137265188 0
183 0.9212956757224806 0.6081563843530647 0
184 0.3877323904806165 0.9173445019377523 0
185 0.3956794083572165 0.07630444831682134 0
186 0.6516520395145982 0.9153974198915298 0
187 0.6582863098881457 0.08470381812198134 0
188 0.09219924894644611 0.3309548613127285 0
189 0.9160857585703329 0.3481203998762851 0
190 0.5635729680449729 0.8417429896309391 0
191 0.1621490291916802 0.4453680522651535 0
192 0.8417062973616818 0.4394276665784765 0
193 0.5465252016783784 0.1869007761180346 0
194 0.1917943468046214 0.5709755578581948 0
195 0.4230026418652405 0.1872305459209327 0
196 0.8192779882021517 0.5722225208011699 0
197 0.4276843864371081 0.8193585986613805 0
198 0.537262142236489 0.4238933677737462 0
199 0.2308519774668559 0.3318994616185885 0
200 0.7729118061973136 0.6636318747799933 0
201 0.4208263654143085 0.4545395116627489 0
202 0.0739115227381594 0.6779986239424345 0
203 0.9344458935876957 0.683828381321854 0
204 0.3217649298723054 0.924605201709102 0
205 0.3324212665642963 0.06851392464097897 0
206 0.5932785560626435 0.6000285771470932 0
207 0.5585981407249667 0.720139074627747 0
208 0.73676186494198 0.4555382646763085 0
209 0.3902799743965786 0.5945826807558537 0
210 0.4003405636698981 0.3690178784553953 0
211 0.6506286897426468 0.2051495078969199 0
212 0.3264278324427301 0.7907557104216599 0
213 0.7943386485937565 0.3319445028917156 0
214 0.2505372849661296 0.548974015433863 0
215 0.4529664266677577 0.2655753749911095 0
216 0.6248742247860583 0.4110247164750073 0
217 0.4371123295529805 0.5693161401229454 0
218 0.5492620796225565 0.5322400641340528 0
219 0.06621605510956302 0.4860754270878186 0
220 0.5131695133399303 0.9340970759270563 0
221 0.9348298198756719 0.4859863333776383 0
222 0.5117534675306763 0.06308135261574634 0
223 0.6665148204825653 0.791036021064749 0
224 0.203970249267937 0.6794318813038775 0
225 0.1608568767641961 0.5012523019294295 0
226 0.5022714722601938 0.8386415611218017 0
227 0.8405184110622053 0.4990794159026571 0
228 0.4999063059089487 0.1605983584864001 0
229 0.8258825469418012 0.7019969130272269 0
230 0.1612433907692857 0.2996564580190899 0
231 0.8408454503653542 0.3019827949269282 0
232 0.653115420405098 0.2936361965765819 0
233 0.2330566567050643 0.8368030766846715 0
234 0.7719219477539394 0.8567611440842913 0
235 0.2321855686373845 0.1449242879476244 0
236 0.7664551302119665 0.1595633175788528 0
237 0.6067957037230218 0.9267703829055094 0
238 0.0658039121125801 0.3683369487722357 0
239 0.6247492194267799 0.06620582325397945 0
240 0.9276882182721883 0.3932142447476672 0
241 0.0688477992272796 0.9267717025861573 0
242 0.0676170881326828 0.07118939753546971 0
243 0.9277774590983979 0.9311077018579028 0
244 0.9321102012556055 0.07126233187128829 0
245 0.709092601858287 0.6499860072982596 0
246 0.5570495909884533 0.298884515641437 0
247 0.3046566649333375 0.8449160423493858 0
248 0.3151557038553376 0.1437191513037582 0
249 0.6854455601555396 0.1414278768638901 0
250 0.1650164551046699 0.7842552918799885 0
251 0.8342040319022708 0.7692705451776732 0
252 0.1701857646741336 0.2306502180767049 0
253 0.8352965807678308 0.2293199081291785 0
254 0.1391093831248291 0.6969836756304656 0
255 0.06072383445068469 0.5611228518631568 0
256 0.9318023038225633 0.5488730811350437 0
257 0.4352478401250119 0.9315724411377861 0
258 0.4409849781734352 0.05897204190166816 0
259 0.05734835318692109 0.7599496132355472 0
260 0.9430656152957246 0.7635826206198867 0
261 0.2358216696426216 0.9394205973405328 0
262 0.2240305509202734 0.04153311917035219 0
263 0.7725445836755021 0.9322529934930743 0
264 0.05789689580681529 0.2271832333616787 0
265 0.7627652594700829 0.07096976378040333 0
266 0.9449981375012015 0.2308873232767985 0
267 0.436822586831788 0.7526011644391523 0
268 0.758980084029534 0.5638502107586205 0
269 0.2847184235219661 0.3609137297762605 0
270 0.483140054110697 0.6469383810781584 0
271 0.6445219831465637 0.4973200831758958 0
272 0.1529853220772568 0.588219943974846 0
273 0.4133360251717695 0.1410278939217808 0
274 0.3046954559502126 0.6495559865438403 0
275 0.3496949453615776 0.707993457444304 0
276 0.3598252570538305 0.291198518985408 0
277 0.4250734123596633 0.7063941363968534 0
278 0.7054925204015002 0.5720561267701887 0
279 0.3017042669062056 0.4021779805473166 0
280 0.3272533124454098 0.2058711756955862 0
281 0.06314495076234045 0.8523034457905616 0
282 0.9366462855793118 0.8684644194223325 0
283 0.1469266318762195 0.03978537515624825 0
284 0.8586630001362903 0.9421068876169116 0
285 0.06273482900959471 0.1275527244495293 0
286 0.9370706850815793 0.1278410835414657 0
287 0.3571659112458045 0.5463272452511541 0
288 0.4586576182718481 0.3377914153612479 0
289 0.656610070528293 0.7114711094505241 0
290 0.691505138752361 0.3901985471228361 0
291 0.5564208409015352 0.2478604790757434 0
292 0.1855262729246564 0.3963702178609902 0
293 0.8706680325357601 0.5878358852506537 0
294 0.4212359887660763 0.8653787688951732 0
295 0.2489330025097365 0.7396184721011952 0
296 0.748517263917323 0.7471176663784515 0
297 0.2395490524959954 0.2481135627745083 0
298 0.7475538691264478 0.2521149560002908 0
299 0.7960124985269889 0.6078932885036052 0
300 0.7023672517454802 0.9419217753199859 0
301 0.7143344547735851 0.05463159007910571 0
302 0.05314667430523894 0.2992655551957713 0
303 0.9416765707509593 0.2959302036353304 0
304 0.1285935378283023 0.8555268846994787 0
305 0.8759369924049449 0.8530788455392023 0
306 0.1177188638266618 0.1449287659055166 0
307 0.8816361948651619 0.1454667287852791 0
308 0.2098485922570579 0.7969853866406131 0
309 0.792903051039003 0.7829598735029351 0
310 0.2204461411045984 0.2004130660182137 0
311 0.7934049515481059 0.2076416698556077 0
312 0.6042798493736706 0.195123448575538 0
313 0.6119081222635906 0.8143972149404665 0
314 0.8034491187779673 0.4018723739880423 0
315 0.3690762110135126 0.49159032995701 0
316 0.5209868152658161 0.3681076286621079 0
317 0.6074554598259961 0.7070895536199203 0
318 0.713486984675419 0.342362817409791 0
319 0.5939149588311804 0.893857472675658 0
320 0.1080413413260258 0.398041832209822 0
321 0.8947639214360887 0.4059976903904749 0
322 0.5993362690872981 0.1095213070623832 0
323 0.4835212380403678 0.4399308146247714 0
324 0.4507605635838542 0.5038532925495397 0
325 0.6125916052310828 0.3251946987249447 0
326 0.3759341558759993 0.795980151291244 0
327 0.316090949447881 0.2466261260609625 0
328 0.5987769144360363 0.5188771146904269 0
329 0.5588675898229351 0.9543362740391768 0
330 0.5536584204309533 0.03618064123735621 0
331 0.03695806436131703 0.4449577264628091 0
332 0.9548473237638611 0.4409106615377759 0
333 0.253992039244032 0.6791501943795851 0
334 0.6744778848660719 0.6136598693509532 0
335 0.3079386313005671 0.4396251421488565 0
336 0.2115507607921961 0.861346649721386 0
337 0.8010403550284086 0.8737866143824898 0
338 0.1953943125460753 0.1306564687728157 0
339 0.8006440099178641 0.1354500320858434 0
340 0.5464010411236733 0.480645478787104 0
341 0.1229400814264833 0.482327459825746 0
342 0.5178855103494344 0.8817379296917132 0
343 0.8832189589456212 0.4814762843171657 0
344 0.508910784124891 0.1105687189105897 0
345 0.4886780376670362 0.5399098465767367 0
346 0.8947461165114624 0.6731416509137629 0
347 0.5795469528843855 0.7712720267816346 0
348 0.7716806672729259 0.4446296420399461 0
349 0.1147995186249799 0.655733965487033 0
350 0.3469882443772171 0.8899850656427551 0
351 0.3375966579628815 0.1090829250503946 0
352 0.192471523336933 0.6134243220213457 0
353 0.3819106543036935 0.2115968177239518 0
354 0.6996704090951469 0.7502524614909301 0
355 0.05733206108894803 0.7241396060876256 0
356 0.9598638959312643 0.7160927186165543 0
357 0.2731972862940866 0.9407441801921932 0
358 0.2734704619398204 0.04365221845142081 0
359 0.2030551971249961 0.4382235751438253 0
360 0.1621040696688204 0.5385925767075551 0
361 0.4547065647068865 0.1489914285895782 0
362 0.6257730862683148 0.4573014912462268 0
363 0.3043513821719179 0.7473894358907093 0
364 0.6855345691027355 0.2437789814281031 0
365 0.2750268644980937 0.5995335308065541 0
366 0.6024348725239709 0.6558610137362459 0
367 0.5406544746583909 0.614377458076442 0
368 0.05446154358235242 0.6427033705896776 0
369 0.9434540189561101 0.6391981363369819 0
370 0.359119647201601 0.9454883840598833 0
371 0.3792265093784769 0.06030702581205391 0
372 0.7517527052920977 0.2968553684381127 0
373 0.408479890819365 0.2787651075391122 0
374 0.1325278628537098 0.8093519780135792 0
375 0.8713672611588373 0.8106734336871849 0
376 0.1414408977326279 0.188680700703463 0
377 0.8603028588061785 0.1896920785194368 0
378 0.1364881194836599 0.8918337659731861 0
379 0.857047015721026 0.9000077105213307 0
380 0.1275590250767091 0.1114015667293518 0
381 0.8697987917164423 0.1108372544976365 0
382 0.7530770033261059 0.7117421474545494 0
383 0.2440981016774123 0.2886872378556787 0
384 0.3895342957786221 0.6750788378349326 0
385 0.1247577258296776 0.3288336589544558 0
386 0.8754084783766745 0.3375773089200406 0
387 0.3042786659803792 0.5371133898988993 0
388 0.2688767011603063 0.5084587403110805 0
389 0.4600576342338908 0.3037904017094614 0
390 0.4914368277125007 0.2580503497603082 0
391 0.6582085047482381 0.3973960487357356 0
392 0.03047724741483024 0.810004086677229 0
393 0.9689945081970871 0.8314236002247252 0
394 0.187035235743259 0.9656370978109901 0
395 0.1813668863095527 0.04795202451004426 0
396 0.8111944175707827 0.9593795174597113 0
397 0.8122379499002893 0.03584273566660836 0
398 0.0325451714702714 0.1959643200571679 0
399 0.9682331748541896 0.1969795883298034 0
400 0.6337824041778676 0.6204345353157993 0
401 0.4643896516972424 0.6129420172350165 0
402 0.237374106279569 0.586007965652238 0
403 0.5073444198338262 0.7274853009024269 0
404 0.5288351211873308 0.6984909532343817 0
405 0.7468081892660049 0.4896116519974085 0
406 0.6964343576213664 0.4729321387385578 0
407 0.3431881706487162 0.6187824897683019 0
408 0.3709757208922964 0.388609086752903 0
409 0.3808025475798356 0.3432686071959705 0
410 0.4000382306496693 0.2413695775830036 0
411 0.7813931718269769 0.5888283556642184 0
412 0.6597175645665649 0.8773454614617413 0
413 0.6731261856119111 0.1134497767896871 0
414 0.8420014172001857 0.5389782110151626 0
415 0.4621476544223869 0.8396231194504272 0
416 0.5534164987133859 0.8696254951662915 0
417 0.1351080301576115 0.4508842918238816 0
418 0.5305600399124831 0.1432129483986431 0
419 0.8754380954328811 0.4405078295162892 0
420 0.03030937138903594 0.3300371608152716 0
421 0.6648126049278685 0.9594674736049689 0
422 0.9597865022155527 0.3349562489150186 0
423 0.6600218450271242 0.03682580273429563 0
424 0.3370875739182638 0.3216732461732109 0
425 0.03511515701614737 0.6068664389611457 0
426 0.9658216921640783 0.601880697970375 0
427 0.3933872292448132 0.9652918009352499 0
428 0.4000136508134114 0.03617912461581514 0
429 0.2198119578802407 0.9072299436019696 0
430 0.2102235002952171 0.09151582904421247 0
431 0.7839671810311539 0.901657308636363 0
432 0.7813805495941208 0.1022268794698323 0
433 0.605340121076995 0.8522208107977894 0
434 0.1396761568381667 0.385728159094554 0
435 0.8478812668071907 0.3975401387578206 0
436 0.613389334039411 0.1451666753722814 0
437 0.5381586655307546 0.3309433848322766 0
438 0.6811989664882867 0.3209316123692744 0
439 0.3084906280949555 0.8766615012226736 0
440 0.3028761010397959 0.1169769560114148 0
441 0.7431927578496662 0.6410469129050174 0
442 0.1115611484908518 0.9637948653246363 0
443 0.1102593936473678 0.03673612670958605 0
444 0.03251096141993313 0.885798005684334 0
445 0.9555856945033178 0.8974496430515716 0
446 0.8873930594678677 0.966519336675506 0
447 0.8890244602133007 0.03619132565504866 0
448 0.03252557097556248 0.1102602128099368 0
449 0.9673877580447915 0.1103701347612196 0
450 0.5837001106797417 0.4419340063933753 0
451 0.1085071243510814 0.6886071275878949 0
452 0.3943285037672926 0.4185406962952865 0
453 0.2133739500863007 0.5309777705935902 0
454 0.4405234917098965 0.2279829153258553 0
455 0.6631454088704898 0.1699275144319049 0
456 0.6064431839846863 0.3700151778808041 0
457 0.08647630176280972 0.7783341582423231 0
458 0.9080248872195438 0.7815494073659477 0
459 0.09665629934258269 0.2128086393620421 0
460 0.9050167819314822 0.2155370369454205 0
461 0.5287170636536291 0.2276722395429225 0
462 0.4595878597585249 0.7813200710681169 0
463 0.8887725322487976 0.6360904744926309 0
464 0.2056149901186043 0.3078647123939486 0
465 0.6507844294448601 0.248590019634031 0
466 0.3044058947489532 0.8111227822152882 0
467 0.7868614219967068 0.5411128975533607 0
468 0.8205878020556669 0.6670463019836784 0
469 0.4590200306148622 0.6763419986872014 0
470 0.6726289856369808 0.536594177559594 0
471 0.1025869145374406 0.5729261055567744 0
472 0.429262198109187 0.09615643256061503 0
473 0.6982228021746911 0.8994165807706409 0
474 0.701981605836376 0.0993515706372432 0
475 0.4264807139757307 0.8992989514356704 0
476 0.6599387141235972 0.750321611426586 0
477 0.5796640925746813 0.398260130462151 0
478 0.08734049970809046 0.2950664206270605 0
479 0.8985596016568941 0.300910674786973 0
480 0.4233313458589852 0.3945138247930608 0
481 0.5329725570572748 0.8048571126732291 0
482 0.1927725543818072 0.4820888425144583 0
483 0.8089991458597625 0.4734728239121856 0
484 0.3263787894315103 0.6790797751046478 0
485 0.9101832620947442 0.5633957538144635 0
486 0.2142053413625597 0.7112163901507631 0
487 0.1564509890705792 0.7448782604062067 0
488 0.4289562488560734 0.6039491016089105 0
489 0.3905874969720919 0.7084620469457402 0
490 0.4081985043336974 0.7770907353636777 0
491 0.5036176124303126 0.4049480379173004 0
492 0.2619014077169776 0.3620577694050058 0
493 0.6814644769360939 0.6802503981416502 0
494 0.3800884018085279 0.6369296728541429 0
495 0.7086004155144364 0.6113679255240788 0
496 0.2847794357531974 0.4170436218924469 0
497 0.8220284703549871 0.6095180169092906 0
498 0.3902361356837837 0.8336680375780292 0
499 0.7566734101280669 0.3367915471036615 0
500 0.5601861212621289 0.5821423589473502 0
501 0.03609742544187983 0.5223615046343576 0
502 0.9644711495914456 0.5210348456917241 0
503 0.4781654936983384 0.9635689436187609 0
504 0.4775653326764951 0.03486340599015193 0
505 0.3518901808826642 0.7577094885916158 0
506 0.1857879118749465 0.3441545850878577 0
507 0.4633596636686655 0.4722617853418543 0
508 0.7864079745124022 0.7043893382450298 0
509 0.5790709466081442 0.2200330398851343 0
510 0.6951759685638507 0.4270172138897866 0
511 0.3526886096279798 0.585890845827947 0
512 0.4452099101660598 0.3673505871119139 0
513 0.4136873379451128 0.4957018165067428 0
514 0.5922803852039301 0.2932475183819974 0
515 0.2639890294496447 0.8550547080479152 0
516 0.2705505391961746 0.1306863872930591 0
517 0.7391950054875768 0.8380155470132322 0
518 0.7240676422832621 0.1654840912667609 0
519 0.8706318749763575 0.7378777605513235 0
520 0.1652057278077232 0.2650245210136802 0
521 0.8373129820065252 0.2617502400365174 0
522 0.7957127589690616 0.2979644929066322 0
523 0.70457429125952 0.8184231452263365 0
524 0.5339174688423355 0.2745134269071124 0
525 0.8229432283138884 0.3307812946538842 0
526 0.9029351179962494 0.6976643272957084 0
527 0.5349545238815734 0.7600256286092471 0
528 0.7778966316291924 0.4779902958722021 0
529 0.1815789673905724 0.5135740674524568 0
530 0.4673256989825133 0.176775907209064 0
531 0.310139528169823 0.609924822269216 0
532 0.521281050406014 0.6450607041839503 0
533 0.6564205772462185 0.4645316435188968 0
534 0.7294063751095383 0.9664533282317059 0
535 0.7448112815683026 0.04087691003405822 0
536 0.04222959812588721 0.2660568749978693 0
537 0.9677107593093266 0.2698678771282915 0
538 0.6136457728357969 0.5646574276933565 0
539 0.0403019062987188 0.6957408217414117 0
540 0.9755137347377519 0.6848714657349451 0
541 0.3035018491290218 0.9586648791325676 0
542 0.3082299815630781 0.03852361210790545 0
543 0.2498191340714428 0.7779381611185566 0
544 0.7550116841094128 0.7780675543911341 0
545 0.2553832478714627 0.2226195180808663 0
546 0.754672020453441 0.2199283628287434 0
547 0.9144742285286883 0.6580359009930485 0
548 0.7346710540749557 0.6840922994039959 0
549 0.121385564856076 0.6145443343135166 0
550 0.3840556067347936 0.1066964088399743 0
551 0.09666752502239932 0.8532159861888283 0
552 0.906355438938547 0.8448869755872892 0
553 0.08568351764489927 0.1354942840237034 0
554 0.9138931372028225 0.1358623830610952 0
555 0.2770618062802024 0.2346359491005849 0
556 0.5913651047202678 0.7366347103642168 0
557 0.08419559324630861 0.5260803784281118 0
558 0.9218944639881936 0.5164248988535687 0
559 0.4806227974522703 0.9200079809284554 0
560 0.4728793372562902 0.0793938790201352 0
561 0.6815702885440817 0.2786297406225638 0
562 0.4442669600694598 0.535713348511096 0
563 0.5997185779071105 0.9642209709647446 0
564 0.5926683493808221 0.03568198412492093 0
565 0.035788141808164 0.4051017490342739 0
566 0.9647105200583277 0.4002679393345605 0
567 0.4917776199032375 0.8074795417423166 0
568 0.2374713094646046 0.4625163544470384 0
569 0.3359741259025466 0.271459054445189 0
570 0.812221459213551 0.5107728861776731 0
571 0.3469596566905727 0.8136287762027992 0
572 0.3350863434100517 0.4639298212731074 0
573 0.1668794903537903 0.6108233041810427 0
574 0.3864656111816016 0.1636262989060849 0
575 0.160810095930391 0.8599058352344531 0
576 0.8390635119753838 0.8653186425522464 0
577 0.1513866754349983 0.1545011700737645 0
578 0.7305988430786778 0.41846047249249 0
579 0.1716258088831213 0.7059039648033799 0
580 0.5208524302964378 0.5106328730865226 0
581 0.4227820814837533 0.3477236637141445 0
582 0.2670282616993609 0.323198618591264 0
583 0.1786642509373743 0.6738912577813472 0
584 0.6899413442292301 0.2046068627713721 0
585 0.6252167678041256 0.9672670431642773 0
586 0.6291716202204616 0.03425364286488574 0
587 0.03291933942072788 0.3659095656995603 0
588 0.9677359758572293 0.3747886686701383 0
589 0.6285533251071691 0.9074866278771304 0
590 0.6313315286444611 0.09828160685128745 0
591 0.09880680294885663 0.3642988622422943 0
592 0.908012022533079 0.3712378690031208 0
593 0.03678375219805536 0.9620827686797717 0
594 0.03656169984549738 0.03743140958844891 0
595 0.9620549877734083 0.9632702112363234 0
596 0.9633819530259975 0.03746469132730319 0
597 0.4884359415573231 0.3501205582999778 0
598 0.2858184017141601 0.9217650947549193 0
599 0.2907701509859749 0.08422365926606566 0
600 0.03688613667204856 0.4838029976453456 0
601 0.962595909226886 0.4830552704668703 0
602 0.5163794917499651 0.9620603990154279 0
603 0.515247636519427 0.03553823568007478 0
604 0.333911985569748 0.1650714639706242 0
605 0.6288820989469582 0.1753784088193977 0
606 0.07641285557955799 0.7102083166827533 0
607 0.3437260820301624 0.8513601052011283 0
608 0.3380046587262489 0.1317386894146956 0
609 0.383431213487065 0.4614264888119465 0
610 0.1469952349904487 0.6643701344749189 0
611 0.2219856159870569 0.966496606010611 0
612 0.03100094480663981 0.7748589968118632 0
613 0.9695086999699636 0.7959162975018353 0
614 0.7665292173952913 0.9648956108296314 0
615 0.7815941328038558 0.03281275186624757 0
616 0.03392916534043926 0.2325398247050289 0
617 0.9687172569991666 0.2348696464057177 0
618 0.6302762714379287 0.6806409977760474 0
619 0.6873110302377277 0.3636715685693022 0
620 0.5274912818683452 0.5631889309659006 0
621 0.7308696919996049 0.9259970968170026 0
622 0.7322475090287954 0.08550416738211064 0
623 0.08140386780200734 0.2514951770244283 0
624 0.9232907224615408 0.2617788148576015 0
625 0.916706263460342 0.7401476928244959 0
626 0.2407621767951851 0.8805872860219188 0
627 0.2341438223020326 0.1121516613251113 0
628 0.748762332695025 0.1187702224659332 0
629 0.4600983173268106 0.7185474359941311 0
630 0.7350608305063265 0.539348871250803 0
631 0.3207206882423053 0.3705638853095115 0
632 0.5721314209742946 0.501940652422047 0
633 0.3988410719930541 0.5601160729546577 0
634 0.4198046716656498 0.7335627771452218 0
635 0.7388367819492729 0.5811104429340876 0
636 0.2939640940089541 0.3815027323885364 0
637 0.5842592564637519 0.8731696120867452 0
638 0.1530114966782437 0.4142145284062274 0
639 0.5830708487510361 0.1623792726924856 0
640 0.8738781886650969 0.415432485896237 0
641 0.5784791758153081 0.2735962462012612 0
642 0.6195969227652816 0.7804369714436457 0
643 0.649965665798551 0.8270137705946333 0
644 0.3768499180175373 0.8703860416638632 0
645 0.4510347097799186 0.4183208634300298 0
646 0.03864536173443162 0.7456953350066464 0
647 0.9668557812556049 0.7600731435352855 0
648 0.2515335713867265 0.9594254384823433 0
649 0.2441462685197561 0.02690857942936373 0
650 0.3185092338693954 0.7180072829126651 0
651 0.2163569235546582 0.6572596719831946 0
652 0.536460508576061 0.9192058097297577 0
653 0.08254369133434937 0.4510909080823602 0
654 0.5445843603235886 0.08074169414232671 0
655 0.9204835218426395 0.462463341842816 0
656 0.4745842890005084 0.5804114728620053 0
657 0.1894569184791272 0.7759564544672097 0
658 0.8077404538361096 0.7655910523025427 0
659 0.1774908746987636 0.1964186600971964 0
660 0.8099005298624632 0.2317563837897867 0
661 0.5803621403235953 0.549539894838329 0
662 0.6875003959230616 0.7211229734884075 0
663 0.211709434873522 0.8250268110124713 0
664 0.7951798317647637 0.8301843211055411 0
665 0.2111132577874016 0.169619616944177 0
666 0.7937291712263034 0.1778419605964559 0
667 0.1052485067201405 0.9275515842466527 0
668 0.1021908580787095 0.07224676581173023 0
669 0.9305230143279936 0.9068378087208167 0
670 0.8966171154192617 0.07166976035343395 0
671 0.511490041287451 0.1850229881963173 0
672 0.5831514227617869 0.3168664956495322 0
673 0.3059529529691663 0.1830881134666157 0
674 0.5769701101635277 0.9276878064658699 0
675 0.07273702149675017 0.4046653688226655 0
676 0.9285727850243366 0.4227608847254647 0
677 0.5915124276444558 0.07281059767277667 0
678 0.1241851124817063 0.2952849266576588 0
679 0.8739895063435132 0.2872307490242352 0
680 0.02988026919512488 0.3042991342860996 0
681 0.9691828879338247 0.300940792405539 0
682 0.6988850993892191 0.96913290131098 0
683 0.6998702457645178 0.03244950931544892 0
684 0.1778824729544455 0.8133443617402967 0
685 0.8291117559699603 0.8046635201612149 0
686 0.8280423894871236 0.1982452114061349 0
687 0.553698222201892 0.3859953993540931 0
688 0.6382993249492915 0.3255209717382731 0
689 0.6133962200115938 0.4877944548851639 0
690 0.6778403278209264 0.6386702043096709 0
691 0.2824318848316741 0.4612936525415947 0
692 0.5177023857733399 0.2535471202935934 0
693 0.6212022972640829 0.2165037646602813 0
694 0.25348135764953 0.8059386965270191 0
695 0.2558949281541856 0.1768652914326019 0
696 0.7613557764266317 0.80422079534234 0
697 0.7586726241943521 0.1981513078588673 0
698 0.1414250085991114 0.5150578612931224 0
699 0.862335643774426 0.514280590944193 0
700 0.4857905781040716 0.8601375738974262 0
701 0.4812933121928095 0.1326376327445885 0
702 0.7214724908973353 0.3109802585920301 0
703 0.0660059520021308 0.8892173891974907 0
704 0.8873717910124423 0.9257387338978433 0
705 0.0640416210933336 0.1043470224480263 0
706 0.9356171658125545 0.1044687085202606 0
707 0.8315341046835347 0.7370195158051147 0
708 0.1181211178774125 0.7656714931394853 0
709 0.8711571573882044 0.7746833716005374 0
710 0.132899280793028 0.2230384033620759 0
711 0.8696389755326878 0.2242907796226308 0
712 0.3639452655049931 0.6790305082386783 0
713 0.03146134314908496 0.8471325640094465 0
714 0.9672763623302671 0.8580968734702918 0
715 0.03447778914994482 0.1465041436248005 0
716 0.9654275022999864 0.1467389510458069 0
717 0.1501120560952252 0.9643162620827923 0
718 0.8558266829631964 0.9704923027248467 0
719 0.8498606819662149 0.0369215594280722 0
720 0.0344427379332466 0.9237551724238209 0
721 0.03403113078103204 0.0746360673751198 0
722 0.9623370684274049 0.9280738716626118 0
723 0.9658692714615286 0.07469518093327243 0
724 0.9238989064131624 0.9647303567786221 0
725 0.9261985923930941 0.03623092499593131 0
726 0.07424538960944485 0.9631912770408194 0
727 0.07355113562711912 0.03630903690865089 0
728 0.1292597808309466 0.3580189096215542 0
729 0.8836331622940632 0.3778567533474341 0
730 0.2646229648047647 0.6360971553159399 0
731 0.6844841535757924 0.8464264306887822 0
732 0.7981361825763961 0.3660844512764479 0
733 0.09139309263450007 0.6513448490904801 0
734 0.3508102925047791 0.9065530962626291 0
735 0.3687358357068042 0.07743721795967942 0
736 0.4472400399240198 0.8621613207079905 0
737 0.8633708305313192 0.6631291214815035 0
738 0.6364272272608084 0.4338474059172743 0
739 0.4773355532502267 0.5098722131463199 0
740 0.6903968441046493 0.1708173271997367 0
741 0.3787103910885811 0.5223354850776147 0
742 0.6971518688087106 0.7792935536943828 0
743 0.3068476821769671 0.776733529741922 0
744 0.6306792260584723 0.5296315734021336 0
745 0.2876337748233911 0.6762039651396835 0
746 0.4287689894206843 0.310954715104881 0
747 0.6283783316006089 0.721940381088128 0
748 0.7248778717850762 0.3817389005247104 0
749 0.3649365948043748 0.9804574192997151 0
750 0.01957622653375257 0.6364805042263684 0
751 0.3685065019811898 0.02236744237400386 0
752 0.9669975354165558 0.6259474499242719 0
753 0.786737694367262 0.6285680189453234 0
754 0.05884426961039831 0.781877941681294 0
755 0.939813584474199 0.7900446264371516 0
756 0.2076418602570472 0.9380014488177685 0
757 0.2049836885536958 0.05760302856294165 0
758 0.7980227518761434 0.9342968115723178 0
759 0.06453672794952191 0.2012114667452823 0
760 0.7843627642104366 0.06013939960494261 0
761 0.9369382430869418 0.2036324382859472 0
762 0.2865078637167808 0.5653380635178445 0
763 0.1559195169458904 0.331743729355903 0
764 0.7646570571709944 0.2687862527849364 0
765 0.4940434920029815 0.6262365822358611 0
766 0.2211565092557179 0.3675598068799325 0
767 0.1325852598758528 0.7219160038720429 0
768 0.7632498245247383 0.732529346634868 0
769 0.2287361298167008 0.2687461170132867 0
770 0.4841983923657445 0.7525909415028865 0
771 0.7634597527692398 0.5169936007008885 0
772 0.579651307279202 0.6874270668908939 0
773 0.2601359648730846 0.4370976559320264 0
774 0.5720937727473583 0.634049016740695 0
775 0.2836669495014847 0.8309509822647416 0
776 0.718178536311558 0.8683730015554755 0
777 0.7154715534398811 0.1314687827044835 0
778 0.8197302838447463 0.6367555234279956 0
779 0.2758634782078123 0.716647395125991 0
780 0.1430423076312895 0.9281902758588695 0
781 0.8375907019272038 0.9290688622175046 0
782 0.8588599663878107 0.07433438423522361 0
783 0.3479633525209131 0.2298535088316593 0
784 0.7309824954873279 0.2282495755812371 0
785 0.3326463225394969 0.4082766110205039 0
786 0.5162874636521756 0.4586749887451723 0
787 0.03475066513929147 0.5611824551241679 0
788 0.9684428924848584 0.5676379146552382 0
789 0.4384341716161655 0.9649521528121591 0
790 0.4405971402513896 0.0339682537577605 0
791 0.2764765479884114 0.2621347598342786 0
792 0.8658852230056915 0.7015810129260447 0
793 0.2283654296895956 0.7657178096730148 0
794 0.8658241626092376 0.5533996052294632 0
795 0.3690646556242956 0.3241988788383207 0
796 0.6740758560374648 0.5881062557307519 0
797 0.323227144138044 0.8314679432612776 0
798 0.02799572598582072 0.6628097939548779 0
799 0.9624028783783355 0.664548719966268 0
800 0.3375780172283242 0.971707699074716 0
801 0.3531217306357928 0.03783677616782166 0
802 0.7665295984541289 0.409368230054881 0
803 0.7701923352942703 0.7641044887579292 0
804 0.2073454394490672 0.2374804474149622 0
805 0.7708222252787202 0.2336547497041547 0
806 0.1346823347552542 0.5573580508713809 0
807 0.4415669297218655 0.1233719765011729 0
808 0.4310948462946141 0.1577767677153447 0
809 0.2626194848231578 0.4761134886209229 0
810 0.4956452314848483 0.675436633792458 0
811 0.6697073877411985 0.502201846421636 0
812 0.300019122868481 0.3394005328373944 0
813 0.3346264759885152 0.6424819176925972 0
814 0.6219041113236822 0.8850891700199242 0
815 0.6459759390318363 0.1345149977933053 0
816 0.6373575542235719 0.9449588601313258 0
817 0.647738299544369 0.06393182648194171 0
818 0.06082340564395776 0.3325129906144744 0
819 0.9455552616011733 0.3625390177393009 0
820 0.331547018012387 0.5144344188371105 0
821 0.7338073470205827 0.7682561443977873 0
822 0.3841412481470787 0.3072449616853266 0
823 0.2478078621038268 0.9225408226363161 0
824 0.2420446629410356 0.06986716759058197 0
825 0.615477683525999 0.2908651210367743 0
826 0.07475905119109533 0.7486494866945768 0
827 0.6660527290950637 0.1488567505658487 0
828 0.0611510741157787 0.8147012032625308 0
829 0.937973098473214 0.8246395320600212 0
830 0.07419718356639675 0.1670269337820346 0
831 0.9261413746864612 0.1680276038845314 0
832 0.8563984003544208 0.6186868572120182 0
833 0.3766977302789865 0.2740587982602357 0
834 0.2702996642179066 0.7646375563318382 0
835 0.2393654609913255 0.4088533193216805 0
836 0.07109902229074451 0.5894601932755937 0
837 0.4173478665047752 0.06806797056651327 0
838 0.1368637090692306 0.07699356408133637 0
839 0.1581327622141657 0.8269288486691704 0
840 0.8400016143909477 0.8354834751008213 0
841 0.8482773224554963 0.1558202139913491 0
842 0.3255699574771505 0.5540071010703401 0
843 0.43707307245722 0.3320584072707138 0
844 0.7274209294372153 0.7276081999571675 0
845 0.1861403721107123 0.644371070506761 0
846 0.3578654945351437 0.1864816431967318 0
847 0.4063860572383582 0.9376441727839901 0
848 0.8742128126096096 0.2598028675301302 0
849 0.1655571551161591 0.3691710227140092 0
850 0.2984494383639861 0.2229126212923492 0
851 0.42428395865068 0.6744971442178019 0
852 0.1617372245734097 0.4780996441561826 0
853 0.8419262457199788 0.4742040627828726 0
854 0.527899286853223 0.8399129870386964 0
855 0.458976474864373 0.6439626718753307 0
856 0.7225972224479897 0.2719141624393765 0
857 0.5718690749893902 0.8078923575965058 0
858 0.806961394553115 0.4394855539486053 0
859 0.1814946948968522 0.8895176120851785 0
860 0.1617223173150609 0.1199632277345672 0
861 0.828625598989886 0.8864440374518994 0
862 0.8339577723972671 0.1207030157095471 0
863 0.680381564146829 0.9292031489870275 0
864 0.6851719164503224 0.07027118606745562 0
865 0.9290017764508253 0.3183942680176606 0
866 0.9303515157242429 0.5801127010830065 0
867 0.2864684378428358 0.1584188812161395 0
868 0.6612438301539521 0.4314702343715285 0
$EndNodes
$Elements
817
1 3 2 1 1 170 374 304 551
2 3 2 1 1 171 552 305 375
3 3 2 1 1 143 380 306 553
4 3 2 1 1 307 381 145 554
5 3 2 1 1 64 503 602 65
6 3 2 1 1 40 41 603 504
7 3 2 1 1 16 17 600 501
8 3 2 1 1 88 502 601 89
9 3 2 1 1 122 433 313 643
10 3 2 1 1 288 389 168 597
11 3 2 1 1 179 403 770 629
12 3 2 1 1 180 405 771 630
13 3 2 1 1 360 529 453 194
14 3 2 1 1 325 456 117 672
15 3 2 1 1 147 491 323 645
16 3 2 1 1 305 144 704 379
17 3 2 1 1 785 631 181 408
18 3 2 1 1 644 294 475 184
19 3 2 1 1 150 319 237 674
20 3 2 1 1 152 321 240 676
21 3 2 1 1 378 142 551 304
22 3 2 1 1 282 144 305 552
23 3 2 1 1 203 356 625 526
24 3 2 1 1 165 410 373 833
25 3 2 1 1 231 386 125 525
26 3 2 1 1 411 196 497 299
27 3 2 1 1 214 453 107 388
28 3 2 1 1 215 454 109 390
29 3 2 1 1 411 299 753 139
30 3 2 1 1 314 732 125 435
31 3 2 1 1 327 783 165 569
32 3 2 1 1 139 441 245 495
33 3 2 1 1 414 196 467 570
34 3 2 1 1 328 689 271 744
35 3 2 1 1 825 232 688 325
36 3 2 1 1 16 501 787 15
37 3 2 1 1 88 87 788 502
38 3 2 1 1 64 63 789 503
39 3 2 1 1 40 504 790 39
40 3 2 1 1 290 391 169 619
41 3 2 1 1 857 481 527 347
42 3 2 1 1 858 483 528 348
43 3 2 1 1 786 323 491 198
44 3 2 1 1 450 477 456 216
45 3 2 1 1 415 197 462 567
46 3 2 1 1 334 400 115 796
47 3 2 1 1 450 340 786 198
48 3 2 1 1 215 390 168 389
49 3 2 1 1 164 352 194 402
50 3 2 1 1 275 489 138 505
51 3 2 1 1 812 424 181 631
52 3 2 1 1 194 453 214 402
53 3 2 1 1 454 410 353 195
54 3 2 1 1 437 117 687 316
55 3 2 1 1 572 116 609 315
56 3 2 1 1 333 730 274 745
57 3 2 1 1 675 238 591 320
58 3 2 1 1 677 239 590 322
59 3 2 1 1 101 739 324 507
60 3 2 1 1 400 167 618 366
61 3 2 1 1 539 798 368 202
62 3 2 1 1 541 204 370 800
63 3 2 1 1 384 851 277 489
64 3 2 1 1 839 374 250 684
65 3 2 1 1 168 524 246 437
66 3 2 1 1 572 335 785 116
67 3 2 1 1 486 224 651 333
68 3 2 1 1 730 333 651 164
69 3 2 1 1 522 213 499 372
70 3 2 1 1 110 663 233 336
71 3 2 1 1 111 337 234 664
72 3 2 1 1 235 665 112 338
73 3 2 1 1 236 339 113 666
74 3 2 1 1 416 190 433 637
75 3 2 1 1 419 192 435 640
76 3 2 1 1 506 763 230 464
77 3 2 1 1 505 138 490 326
78 3 2 1 1 410 165 783 353
79 3 2 1 1 557 341 698 129
80 3 2 1 1 558 130 699 343
81 3 2 1 1 559 131 700 342
82 3 2 1 1 560 344 701 132
83 3 2 1 1 109 530 228 671
84 3 2 1 1 513 201 507 324
85 3 2 1 1 210 408 181 409
86 3 2 1 1 180 406 208 405
87 3 2 1 1 385 728 591 188
88 3 2 1 1 386 189 592 729
89 3 2 1 1 513 324 562 146
90 3 2 1 1 105 702 318 438
91 3 2 1 1 167 493 289 618
92 3 2 1 1 216 456 169 391
93 3 2 1 1 454 215 373 410
94 3 2 1 1 490 197 498 326
95 3 2 1 1 325 688 169 456
96 3 2 1 1 293 196 414 794
97 3 2 1 1 413 474 777 249
98 3 2 1 1 412 731 776 473
99 3 2 1 1 294 197 415 736
100 3 2 1 1 118 549 272 573
101 3 2 1 1 121 550 273 574
102 3 2 1 1 186 589 814 412
103 3 2 1 1 187 413 815 590
104 3 2 1 1 781 284 718 396
105 3 2 1 1 101 507 323 786
106 3 2 1 1 22 536 302 680
107 3 2 1 1 46 535 301 683
108 3 2 1 1 127 532 367 774
109 3 2 1 1 114 494 209 488
110 3 2 1 1 689 328 632 163
111 3 2 1 1 505 326 571 212
112 3 2 1 1 776 517 234 136
113 3 2 1 1 777 628 236 518
114 3 2 1 1 191 638 292 359
115 3 2 1 1 329 66 65 602
116 3 2 1 1 330 603 41 42
117 3 2 1 1 331 600 17 18
118 3 2 1 1 332 90 89 601
119 3 2 1 1 569 104 791 327
120 3 2 1 1 376 577 112 659
121 3 2 1 1 353 783 280 846
122 3 2 1 1 105 438 232 561
123 3 2 1 1 785 335 496 279
124 3 2 1 1 156 464 230 520
125 3 2 1 1 141 509 312 693
126 3 2 1 1 166 388 809 691
127 3 2 1 1 548 200 508 382
128 3 2 1 1 356 540 84 83
129 3 2 1 1 358 35 36 542
130 3 2 1 1 400 334 690 167
131 3 2 1 1 765 401 656 162
132 3 2 1 1 719 782 176 397
133 3 2 1 1 717 780 172 394
134 3 2 1 1 283 395 173 838
135 3 2 1 1 257 475 131 559
136 3 2 1 1 173 430 338 860
137 3 2 1 1 174 431 337 861
138 3 2 1 1 176 862 339 432
139 3 2 1 1 130 558 256 485
140 3 2 1 1 141 641 291 509
141 3 2 1 1 632 328 661 218
142 3 2 1 1 523 731 643 223
143 3 2 1 1 852 225 698 341
144 3 2 1 1 854 342 700 226
145 3 2 1 1 853 343 699 227
146 3 2 1 1 418 228 701 344
147 3 2 1 1 580 345 739 101
148 3 2 1 1 379 704 284 781
149 3 2 1 1 144 282 445 669
150 3 2 1 1 139 635 268 411
151 3 2 1 1 791 104 582 383
152 3 2 1 1 557 219 653 341
153 3 2 1 1 559 342 652 220
154 3 2 1 1 558 343 655 221
155 3 2 1 1 417 341 653 151
156 3 2 1 1 416 150 652 342
157 3 2 1 1 419 152 655 343
158 3 2 1 1 560 222 654 344
159 3 2 1 1 418 344 654 153
160 3 2 1 1 313 433 190 857
161 3 2 1 1 314 435 192 858
162 3 2 1 1 79 445 282 714
163 3 2 1 1 547 203 526 346
164 3 2 1 1 451 202 733 349
165 3 2 1 1 439 350 734 204
166 3 2 1 1 530 195 808 361
167 3 2 1 1 450 163 632 340
168 3 2 1 1 245 548 103 493
169 3 2 1 1 377 686 113 841
170 3 2 1 1 556 347 527 207
171 3 2 1 1 442 667 780 717
172 3 2 1 1 443 283 838 668
173 3 2 1 1 447 670 782 719
174 3 2 1 1 539 355 646 11
175 3 2 1 1 541 59 648 357
176 3 2 1 1 408 210 480 452
177 3 2 1 1 766 492 140 835
178 3 2 1 1 621 300 863 473
179 3 2 1 1 622 474 864 301
180 3 2 1 1 562 345 656 217
181 3 2 1 1 306 175 830 553
182 3 2 1 1 307 554 831 177
183 3 2 1 1 383 464 156 769
184 3 2 1 1 549 349 733 182
185 3 2 1 1 644 184 734 350
186 3 2 1 1 53 2 5 593
187 3 2 1 1 29 594 28 1
188 3 2 1 1 76 595 77 4
189 3 2 1 1 52 3 100 596
190 3 2 1 1 136 431 263 621
191 3 2 1 1 628 622 265 432
192 3 2 1 1 183 463 832 293
193 3 2 1 1 388 166 820 387
194 3 2 1 1 698 225 529 360
195 3 2 1 1 701 228 530 361
196 3 2 1 1 549 118 610 349
197 3 2 1 1 372 764 157 522
198 3 2 1 1 550 121 608 351
199 3 2 1 1 606 355 539 202
200 3 2 1 1 799 540 356 203
201 3 2 1 1 598 204 541 357
202 3 2 1 1 599 358 542 205
203 3 2 1 1 728 123 849 434
204 3 2 1 1 476 354 742 223
205 3 2 1 1 334 796 278 495
206 3 2 1 1 268 467 196 411
207 3 2 1 1 533 362 738 868
208 3 2 1 1 128 409 795 822
209 3 2 1 1 211 693 312 605
210 3 2 1 1 826 259 646 355
211 3 2 1 1 823 357 648 261
212 3 2 1 1 824 262 649 358
213 3 2 1 1 748 578 510 290
214 3 2 1 1 197 294 644 498
215 3 2 1 1 605 436 815 124
216 3 2 1 1 183 426 752 369
217 3 2 1 1 753 778 468 200
218 3 2 1 1 737 463 547 346
219 3 2 1 1 450 362 689 163
220 3 2 1 1 360 806 129 698
221 3 2 1 1 361 807 132 701
222 3 2 1 1 779 363 834 295
223 3 2 1 1 505 212 743 363
224 3 2 1 1 450 216 738 362
225 3 2 1 1 464 383 582 199
226 3 2 1 1 487 250 374 708
227 3 2 1 1 685 251 709 375
228 3 2 1 1 659 252 710 376
229 3 2 1 1 686 377 711 253
230 3 2 1 1 402 214 762 365
231 3 2 1 1 685 375 305 840
232 3 2 1 1 175 306 577 376
233 3 2 1 1 177 377 841 307
234 3 2 1 1 162 656 345 620
235 3 2 1 1 799 203 547 369
236 3 2 1 1 465 211 584 364
237 3 2 1 1 801 371 735 205
238 3 2 1 1 779 102 650 363
239 3 2 1 1 400 366 774 206
240 3 2 1 1 205 735 550 351
241 3 2 1 1 500 206 774 367
242 3 2 1 1 402 365 730 164
243 3 2 1 1 277 634 138 489
244 3 2 1 1 511 209 494 407
245 3 2 1 1 557 471 836 255
246 3 2 1 1 560 472 837 258
247 3 2 1 1 208 578 802 348
248 3 2 1 1 209 633 217 488
249 3 2 1 1 531 365 762 126
250 3 2 1 1 404 207 527 403
251 3 2 1 1 348 528 405 208
252 3 2 1 1 387 820 287 842
253 3 2 1 1 182 733 202 368
254 3 2 1 1 184 370 204 734
255 3 2 1 1 550 735 371 185
256 3 2 1 1 278 470 180 630
257 3 2 1 1 345 580 218 620
258 3 2 1 1 856 298 764 372
259 3 2 1 1 233 694 775 515
260 3 2 1 1 439 607 644 350
261 3 2 1 1 498 644 607 120
262 3 2 1 1 147 597 316 491
263 3 2 1 1 9 392 713 8
264 3 2 1 1 57 56 717 394
265 3 2 1 1 33 395 283 32
266 3 2 1 1 72 396 718 73
267 3 2 1 1 48 49 719 397
268 3 2 1 1 24 25 715 398
269 3 2 1 1 96 399 716 97
270 3 2 1 1 436 605 312 639
271 3 2 1 1 142 703 281 551
272 3 2 1 1 856 372 702 105
273 3 2 1 1 425 14 15 787
274 3 2 1 1 426 788 87 86
275 3 2 1 1 427 789 63 62
276 3 2 1 1 428 38 39 790
277 3 2 1 1 197 490 267 462
278 3 2 1 1 844 103 548 382
279 3 2 1 1 567 106 527 481
280 3 2 1 1 138 634 267 490
281 3 2 1 1 452 480 645 201
282 3 2 1 1 624 303 865 479
283 3 2 1 1 118 573 352 845
284 3 2 1 1 212 571 797 466
285 3 2 1 1 157 521 231 522
286 3 2 1 1 102 484 275 650
287 3 2 1 1 528 483 570 108
288 3 2 1 1 168 390 692 524
289 3 2 1 1 356 647 260 625
290 3 2 1 1 45 423 586 44
291 3 2 1 1 21 420 587 20
292 3 2 1 1 482 107 453 529
293 3 2 1 1 195 530 109 454
294 3 2 1 1 494 114 851 384
295 3 2 1 1 117 437 246 672
296 3 2 1 1 334 495 245 690
297 3 2 1 1 335 691 773 496
298 3 2 1 1 450 198 687 477
299 3 2 1 1 363 650 275 505
300 3 2 1 1 166 691 335 572
301 3 2 1 1 103 662 289 493
302 3 2 1 1 149 748 318 499
303 3 2 1 1 511 407 531 126
304 3 2 1 1 510 406 533 868
305 3 2 1 1 621 473 776 136
306 3 2 1 1 622 628 777 474
307 3 2 1 1 351 440 599 205
308 3 2 1 1 206 538 115 400
309 3 2 1 1 349 610 254 451
310 3 2 1 1 228 418 193 671
311 3 2 1 1 331 18 19 565
312 3 2 1 1 332 566 91 90
313 3 2 1 1 329 563 67 66
314 3 2 1 1 330 42 43 564
315 3 2 1 1 351 608 248 440
316 3 2 1 1 494 384 712 178
317 3 2 1 1 412 473 863 186
318 3 2 1 1 413 187 864 474
319 3 2 1 1 200 548 245 441
320 3 2 1 1 347 556 148 642
321 3 2 1 1 139 495 278 635
322 3 2 1 1 279 496 140 636
323 3 2 1 1 512 581 843 288
324 3 2 1 1 193 509 291 461
325 3 2 1 1 844 382 768 296
326 3 2 1 1 229 508 200 468
327 3 2 1 1 193 639 312 509
328 3 2 1 1 120 571 326 498
329 3 2 1 1 791 383 769 297
330 3 2 1 1 614 534 621 263
331 3 2 1 1 682 300 621 534
332 3 2 1 1 301 535 265 622
333 3 2 1 1 616 264 623 536
334 3 2 1 1 478 302 536 623
335 3 2 1 1 681 303 624 537
336 3 2 1 1 617 537 624 266
337 3 2 1 1 127 772 207 404
338 3 2 1 1 289 476 148 747
339 3 2 1 1 859 336 626 429
340 3 2 1 1 235 338 430 627
341 3 2 1 1 234 337 431 136
342 3 2 1 1 236 628 432 339
343 3 2 1 1 219 600 331 653
344 3 2 1 1 221 655 332 601
345 3 2 1 1 220 652 329 602
346 3 2 1 1 222 603 330 654
347 3 2 1 1 859 429 756 172
348 3 2 1 1 333 745 102 779
349 3 2 1 1 308 694 233 663
350 3 2 1 1 310 665 235 695
351 3 2 1 1 269 636 140 492
352 3 2 1 1 373 215 389 746
353 3 2 1 1 464 199 766 506
354 3 2 1 1 311 697 236 666
355 3 2 1 1 403 179 810 404
356 3 2 1 1 678 230 763 385
357 3 2 1 1 188 478 678 385
358 3 2 1 1 231 679 479 386
359 3 2 1 1 146 741 315 513
360 3 2 1 1 435 125 386 729
361 3 2 1 1 170 457 708 374
362 3 2 1 1 171 375 709 458
363 3 2 1 1 175 376 710 459
364 3 2 1 1 177 460 711 377
365 3 2 1 1 516 867 695 235
366 3 2 1 1 356 83 82 647
367 3 2 1 1 358 649 34 35
368 3 2 1 1 178 712 275 484
369 3 2 1 1 494 178 813 407
370 3 2 1 1 174 758 263 431
371 3 2 1 1 176 432 265 760
372 3 2 1 1 537 94 93 681
373 3 2 1 1 534 70 69 682
374 3 2 1 1 364 561 232 465
375 3 2 1 1 246 524 291 641
376 3 2 1 1 388 387 762 214
377 3 2 1 1 126 762 387 842
378 3 2 1 1 461 692 390 109
379 3 2 1 1 352 573 272 194
380 3 2 1 1 59 58 611 648
381 3 2 1 1 33 34 649 262
382 3 2 1 1 11 646 612 10
383 3 2 1 1 81 613 647 82
384 3 2 1 1 488 217 656 401
385 3 2 1 1 625 260 755 458
386 3 2 1 1 623 264 759 459
387 3 2 1 1 624 460 761 266
388 3 2 1 1 616 536 22 23
389 3 2 1 1 617 95 94 537
390 3 2 1 1 614 71 70 534
391 3 2 1 1 615 535 46 47
392 3 2 1 1 210 409 128 581
393 3 2 1 1 162 367 532 765
394 3 2 1 1 250 487 154 657
395 3 2 1 1 327 850 280 783
396 3 2 1 1 10 612 392 9
397 3 2 1 1 80 393 613 81
398 3 2 1 1 58 57 394 611
399 3 2 1 1 71 614 396 72
400 3 2 1 1 47 48 397 615
401 3 2 1 1 23 24 398 616
402 3 2 1 1 95 617 399 96
403 3 2 1 1 201 609 116 452
404 3 2 1 1 105 561 364 856
405 3 2 1 1 251 658 155 707
406 3 2 1 1 104 569 276 424
407 3 2 1 1 195 353 846 574
408 3 2 1 1 787 501 557 255
409 3 2 1 1 788 256 558 502
410 3 2 1 1 600 219 557 501
411 3 2 1 1 601 502 558 221
412 3 2 1 1 789 257 559 503
413 3 2 1 1 602 503 559 220
414 3 2 1 1 790 504 560 258
415 3 2 1 1 603 222 560 504
416 3 2 1 1 345 562 324 739
417 3 2 1 1 302 478 188 818
418 3 2 1 1 386 479 865 189
419 3 2 1 1 630 771 467 268
420 3 2 1 1 130 485 293 794
421 3 2 1 1 369 547 463 183
422 3 2 1 1 538 744 470 115
423 3 2 1 1 154 486 295 793
424 3 2 1 1 825 325 672 514
425 3 2 1 1 167 690 245 493
426 3 2 1 1 169 688 232 438
427 3 2 1 1 737 346 526 792
428 3 2 1 1 294 736 131 475
429 3 2 1 1 169 438 318 619
430 3 2 1 1 488 401 855 114
431 3 2 1 1 765 270 855 401
432 3 2 1 1 456 477 687 117
433 3 2 1 1 430 173 395 757
434 3 2 1 1 781 396 758 174
435 3 2 1 1 133 451 254 767
436 3 2 1 1 486 579 583 224
437 3 2 1 1 101 786 340 580
438 3 2 1 1 316 597 168 437
439 3 2 1 1 102 745 274 484
440 3 2 1 1 223 642 148 476
441 3 2 1 1 629 770 462 267
442 3 2 1 1 567 462 770 106
443 3 2 1 1 814 319 637 433
444 3 2 1 1 151 320 434 638
445 3 2 1 1 153 322 436 639
446 3 2 1 1 729 321 640 435
447 3 2 1 1 382 508 155 768
448 3 2 1 1 570 227 699 414
449 3 2 1 1 567 226 700 415
450 3 2 1 1 771 108 570 467
451 3 2 1 1 231 525 213 522
452 3 2 1 1 123 728 385 763
453 3 2 1 1 359 568 107 482
454 3 2 1 1 527 106 770 403
455 3 2 1 1 528 108 771 405
456 3 2 1 1 424 795 409 181
457 3 2 1 1 452 116 785 408
458 3 2 1 1 204 598 134 439
459 3 2 1 1 516 135 599 440
460 3 2 1 1 319 150 416 637
461 3 2 1 1 191 417 151 638
462 3 2 1 1 193 418 153 639
463 3 2 1 1 321 152 419 640
464 3 2 1 1 278 796 115 470
465 3 2 1 1 520 230 678 137
466 3 2 1 1 521 848 679 231
467 3 2 1 1 748 149 802 578
468 3 2 1 1 202 451 133 606
469 3 2 1 1 433 122 412 814
470 3 2 1 1 211 605 124 455
471 3 2 1 1 320 151 653 675
472 3 2 1 1 150 674 329 652
473 3 2 1 1 152 676 332 655
474 3 2 1 1 322 153 654 677
475 3 2 1 1 626 134 823 429
476 3 2 1 1 756 429 823 261
477 3 2 1 1 757 262 824 430
478 3 2 1 1 627 430 824 135
479 3 2 1 1 557 129 806 471
480 3 2 1 1 549 471 806 272
481 3 2 1 1 560 132 807 472
482 3 2 1 1 550 472 807 273
483 3 2 1 1 22 680 420 21
484 3 2 1 1 92 422 681 93
485 3 2 1 1 68 421 682 69
486 3 2 1 1 46 683 423 45
487 3 2 1 1 362 533 271 689
488 3 2 1 1 700 131 736 415
489 3 2 1 1 497 778 753 299
490 3 2 1 1 342 854 190 416
491 3 2 1 1 341 417 191 852
492 3 2 1 1 343 853 192 419
493 3 2 1 1 486 154 487 579
494 3 2 1 1 393 714 282 829
495 3 2 1 1 392 828 281 713
496 3 2 1 1 699 130 794 414
497 3 2 1 1 146 562 217 633
498 3 2 1 1 715 830 759 398
499 3 2 1 1 716 399 761 831
500 3 2 1 1 308 657 154 793
501 3 2 1 1 487 708 133 767
502 3 2 1 1 744 271 811 470
503 3 2 1 1 317 747 148 556
504 3 2 1 1 629 469 810 179
505 3 2 1 1 406 180 470 811
506 3 2 1 1 457 170 828 754
507 3 2 1 1 458 755 829 171
508 3 2 1 1 459 759 830 175
509 3 2 1 1 460 177 831 761
510 3 2 1 1 819 189 865 422
511 3 2 1 1 816 186 863 421
512 3 2 1 1 817 423 864 187
513 3 2 1 1 372 499 318 702
514 3 2 1 1 315 741 287 820
515 3 2 1 1 55 54 726 442
516 3 2 1 1 31 443 727 30
517 3 2 1 1 667 442 726 241
518 3 2 1 1 668 242 727 443
519 3 2 1 1 703 241 720 444
520 3 2 1 1 669 445 722 243
521 3 2 1 1 7 444 720 6
522 3 2 1 1 79 78 722 445
523 3 2 1 1 704 243 724 446
524 3 2 1 1 74 446 724 75
525 3 2 1 1 705 448 721 242
526 3 2 1 1 50 51 725 447
527 3 2 1 1 670 447 725 244
528 3 2 1 1 26 27 721 448
529 3 2 1 1 706 244 723 449
530 3 2 1 1 98 449 723 99
531 3 2 1 1 147 512 288 597
532 3 2 1 1 512 147 645 480
533 3 2 1 1 427 847 257 789
534 3 2 1 1 127 404 810 532
535 3 2 1 1 365 531 274 730
536 3 2 1 1 368 425 836 182
537 3 2 1 1 371 428 837 185
538 3 2 1 1 178 484 274 813
539 3 2 1 1 480 210 581 512
540 3 2 1 1 713 281 703 444
541 3 2 1 1 718 284 704 446
542 3 2 1 1 715 448 705 285
543 3 2 1 1 716 286 706 449
544 3 2 1 1 366 618 317 772
545 3 2 1 1 694 308 793 543
546 3 2 1 1 836 425 787 255
547 3 2 1 1 837 428 790 258
548 3 2 1 1 209 511 287 633
549 3 2 1 1 370 184 847 427
550 3 2 1 1 582 104 424 812
551 3 2 1 1 237 319 814 589
552 3 2 1 1 436 322 590 815
553 3 2 1 1 109 671 193 461
554 3 2 1 1 157 660 253 521
555 3 2 1 1 367 162 620 500
556 3 2 1 1 139 753 200 441
557 3 2 1 1 754 259 826 457
558 3 2 1 1 406 510 578 208
559 3 2 1 1 229 707 155 508
560 3 2 1 1 775 466 797 247
561 3 2 1 1 715 285 553 830
562 3 2 1 1 716 831 554 286
563 3 2 1 1 92 588 819 422
564 3 2 1 1 68 585 816 421
565 3 2 1 1 672 246 641 514
566 3 2 1 1 826 133 708 457
567 3 2 1 1 625 458 709 519
568 3 2 1 1 623 459 710 137
569 3 2 1 1 624 848 711 460
570 3 2 1 1 207 772 317 556
571 3 2 1 1 354 476 289 662
572 3 2 1 1 211 455 740 584
573 3 2 1 1 211 465 141 693
574 3 2 1 1 183 866 788 426
575 3 2 1 1 629 277 851 469
576 3 2 1 1 792 229 468 737
577 3 2 1 1 165 833 276 569
578 3 2 1 1 329 674 237 563
579 3 2 1 1 654 330 564 677
580 3 2 1 1 653 331 565 675
581 3 2 1 1 332 676 240 566
582 3 2 1 1 336 233 515 626
583 3 2 1 1 439 134 626 515
584 3 2 1 1 135 516 235 627
585 3 2 1 1 434 320 591 728
586 3 2 1 1 240 321 729 592
587 3 2 1 1 740 455 827 249
588 3 2 1 1 623 137 678 478
589 3 2 1 1 624 479 679 848
590 3 2 1 1 212 466 158 743
591 3 2 1 1 156 520 252 804
592 3 2 1 1 461 291 524 692
593 3 2 1 1 149 732 314 802
594 3 2 1 1 424 276 822 795
595 3 2 1 1 149 499 213 732
596 3 2 1 1 737 119 832 463
597 3 2 1 1 810 469 855 270
598 3 2 1 1 444 7 8 713
599 3 2 1 1 393 80 79 714
600 3 2 1 1 448 715 25 26
601 3 2 1 1 449 98 97 716
602 3 2 1 1 442 717 56 55
603 3 2 1 1 446 74 73 718
604 3 2 1 1 443 31 32 283
605 3 2 1 1 447 719 49 50
606 3 2 1 1 851 114 855 469
607 3 2 1 1 737 468 778 119
608 3 2 1 1 141 465 232 825
609 3 2 1 1 425 750 13 14
610 3 2 1 1 426 86 85 752
611 3 2 1 1 427 62 61 749
612 3 2 1 1 428 751 37 38
613 3 2 1 1 201 513 315 609
614 3 2 1 1 455 124 815 827
615 3 2 1 1 249 827 815 413
616 3 2 1 1 857 190 854 481
617 3 2 1 1 359 482 852 191
618 3 2 1 1 858 192 853 483
619 3 2 1 1 354 662 103 844
620 3 2 1 1 288 843 746 389
621 3 2 1 1 374 839 575 304
622 3 2 1 1 549 182 836 471
623 3 2 1 1 550 185 837 472
624 3 2 1 1 216 391 868 738
625 3 2 1 1 677 564 586 239
626 3 2 1 1 68 67 563 585
627 3 2 1 1 44 586 564 43
628 3 2 1 1 675 565 587 238
629 3 2 1 1 20 587 565 19
630 3 2 1 1 92 91 566 588
631 3 2 1 1 750 798 12 13
632 3 2 1 1 749 61 60 800
633 3 2 1 1 751 801 36 37
634 3 2 1 1 425 368 798 750
635 3 2 1 1 85 799 369 752
636 3 2 1 1 427 749 800 370
637 3 2 1 1 428 371 801 751
638 3 2 1 1 500 661 538 206
639 3 2 1 1 440 248 867 516
640 3 2 1 1 707 519 709 251
641 3 2 1 1 257 847 184 475
642 3 2 1 1 143 553 285 705
643 3 2 1 1 145 706 286 554
644 3 2 1 1 744 538 661 328
645 3 2 1 1 198 491 316 687
646 3 2 1 1 384 489 275 712
647 3 2 1 1 434 849 292 638
648 3 2 1 1 241 703 142 667
649 3 2 1 1 242 668 143 705
650 3 2 1 1 243 704 144 669
651 3 2 1 1 244 706 145 670
652 3 2 1 1 850 327 791 555
653 3 2 1 1 201 645 323 507
654 3 2 1 1 620 218 661 500
655 3 2 1 1 696 309 685 664
656 3 2 1 1 127 774 366 772
657 3 2 1 1 579 487 767 254
658 3 2 1 1 223 643 313 642
659 3 2 1 1 333 779 295 486
660 3 2 1 1 529 225 852 482
661 3 2 1 1 567 481 854 226
662 3 2 1 1 570 483 853 227
663 3 2 1 1 805 298 784 546
664 3 2 1 1 359 292 766 835
665 3 2 1 1 293 485 866 183
666 3 2 1 1 582 492 766 199
667 3 2 1 1 788 866 485 256
668 3 2 1 1 308 663 110 684
669 3 2 1 1 840 111 664 685
670 3 2 1 1 311 666 113 686
671 3 2 1 1 579 254 610 583
672 3 2 1 1 317 618 289 747
673 3 2 1 1 290 619 318 748
674 3 2 1 1 310 659 112 665
675 3 2 1 1 466 775 694 158
676 3 2 1 1 126 842 287 511
677 3 2 1 1 195 574 273 808
678 3 2 1 1 625 519 792 526
679 3 2 1 1 523 159 696 517
680 3 2 1 1 664 234 517 696
681 3 2 1 1 161 518 236 697
682 3 2 1 1 54 53 593 726
683 3 2 1 1 30 727 594 29
684 3 2 1 1 6 720 593 5
685 3 2 1 1 27 28 594 721
686 3 2 1 1 75 724 595 76
687 3 2 1 1 51 52 596 725
688 3 2 1 1 78 77 595 722
689 3 2 1 1 99 723 596 100
690 3 2 1 1 412 122 643 731
691 3 2 1 1 778 497 832 119
692 3 2 1 1 196 293 832 497
693 3 2 1 1 121 604 248 608
694 3 2 1 1 520 137 710 252
695 3 2 1 1 521 253 711 848
696 3 2 1 1 746 843 581 128
697 3 2 1 1 213 525 125 732
698 3 2 1 1 684 110 575 839
699 3 2 1 1 305 576 111 840
700 3 2 1 1 378 780 667 142
701 3 2 1 1 380 143 668 838
702 3 2 1 1 381 782 670 145
703 3 2 1 1 803 544 821 296
704 3 2 1 1 506 766 292 849
705 3 2 1 1 391 290 510 868
706 3 2 1 1 223 742 159 523
707 3 2 1 1 340 632 218 580
708 3 2 1 1 518 161 584 740
709 3 2 1 1 439 515 775 247
710 3 2 1 1 523 517 776 731
711 3 2 1 1 740 249 777 518
712 3 2 1 1 641 141 825 514
713 3 2 1 1 492 582 812 269
714 3 2 1 1 763 506 849 123
715 3 2 1 1 821 544 696 159
716 3 2 1 1 784 161 697 546
717 3 2 1 1 834 158 694 543
718 3 2 1 1 310 695 160 545
719 3 2 1 1 277 629 267 634
720 3 2 1 1 278 630 268 635
721 3 2 1 1 785 279 636 631
722 3 2 1 1 812 631 636 269
723 3 2 1 1 707 229 792 519
724 3 2 1 1 172 780 378 859
725 3 2 1 1 173 860 380 838
726 3 2 1 1 379 781 174 861
727 3 2 1 1 176 782 381 862
728 3 2 1 1 388 107 568 809
729 3 2 1 1 373 746 128 822
730 3 2 1 1 287 741 146 633
731 3 2 1 1 364 584 161 784
732 3 2 1 1 407 813 274 531
733 3 2 1 1 765 532 810 270
734 3 2 1 1 406 811 271 533
735 3 2 1 1 11 12 798 539
736 3 2 1 1 85 84 540 799
737 3 2 1 1 59 541 800 60
738 3 2 1 1 205 542 36 801
739 3 2 1 1 439 247 797 607
740 3 2 1 1 867 248 604 673
741 3 2 1 1 298 805 157 764
742 3 2 1 1 296 768 155 803
743 3 2 1 1 297 769 156 804
744 3 2 1 1 834 543 793 295
745 3 2 1 1 610 118 845 583
746 3 2 1 1 170 551 281 828
747 3 2 1 1 282 552 171 829
748 3 2 1 1 568 359 835 773
749 3 2 1 1 496 773 835 140
750 3 2 1 1 696 544 803 309
751 3 2 1 1 297 804 310 545
752 3 2 1 1 697 311 805 546
753 3 2 1 1 545 555 791 297
754 3 2 1 1 276 833 373 822
755 3 2 1 1 354 844 296 821
756 3 2 1 1 720 241 726 593
757 3 2 1 1 722 595 724 243
758 3 2 1 1 721 594 727 242
759 3 2 1 1 723 244 725 596
760 3 2 1 1 420 818 238 587
761 3 2 1 1 566 240 819 588
762 3 2 1 1 563 237 816 585
763 3 2 1 1 423 817 239 586
764 3 2 1 1 364 784 298 856
765 3 2 1 1 583 845 651 224
766 3 2 1 1 110 336 859 575
767 3 2 1 1 304 575 859 378
768 3 2 1 1 111 576 861 337
769 3 2 1 1 305 379 861 576
770 3 2 1 1 112 577 860 338
771 3 2 1 1 306 380 860 577
772 3 2 1 1 113 339 862 841
773 3 2 1 1 307 841 862 381
774 3 2 1 1 308 684 250 657
775 3 2 1 1 309 658 251 685
776 3 2 1 1 310 804 252 659
777 3 2 1 1 311 686 253 660
778 3 2 1 1 691 809 568 773
779 3 2 1 1 545 160 850 555
780 3 2 1 1 172 756 611 394
781 3 2 1 1 33 262 757 395
782 3 2 1 1 828 392 612 754
783 3 2 1 1 829 755 613 393
784 3 2 1 1 176 760 615 397
785 3 2 1 1 315 820 166 572
786 3 2 1 1 646 259 754 612
787 3 2 1 1 647 613 755 260
788 3 2 1 1 648 611 756 261
789 3 2 1 1 396 614 263 758
790 3 2 1 1 535 615 760 265
791 3 2 1 1 398 759 264 616
792 3 2 1 1 399 617 266 761
793 3 2 1 1 155 658 309 803
794 3 2 1 1 157 805 311 660
795 3 2 1 1 574 846 604 121
796 3 2 1 1 571 120 607 797
797 3 2 1 1 194 272 806 360
798 3 2 1 1 273 807 361 808
799 3 2 1 1 186 816 237 589
800 3 2 1 1 187 590 239 817
801 3 2 1 1 188 591 238 818
802 3 2 1 1 189 819 240 592
803 3 2 1 1 357 823 134 598
804 3 2 1 1 358 599 135 824
805 3 2 1 1 355 606 133 826
806 3 2 1 1 347 642 313 857
807 3 2 1 1 348 802 314 858
808 3 2 1 1 673 604 846 280
809 3 2 1 1 164 651 845 352
810 3 2 1 1 280 850 160 673
811 3 2 1 1 354 821 159 742
812 3 2 1 1 420 680 302 818
813 3 2 1 1 421 863 300 682
814 3 2 1 1 422 865 303 681
815 3 2 1 1 423 683 301 864
816 3 2 1 1 695 867 673 160
817 3 2 1 1 363 743 158 834
$EndElements
