$MeshFormat
2.2 0 8
$EndMeshFormat
$Nodes
95
1 0 0 0
2 0 1 0
3 1 1 0
4 1 0 0
5 0 0.1250000000000002 0
6 0 0.2500000000000007 0
7 0 0.3750000000000012 0
8 0 0.5000000000000017 0
9 0 0.6250000000000013 0
10 0 0.7500000000000009 0
11 0 0.8750000000000004 0
12 0.1250000000000002 1 0
13 0.2500000000000007 1 0
14 0.3750000000000012 1 0
15 0.5000000000000017 1 0
16 0.6250000000000013 1 0
17 0.7500000000000009 1 0
18 0.8750000000000004 1 0
19 1 0.8749999999999998 0
20 1 0.7499999999999993 0
21 1 0.6249999999999988 0
22 1 0.4999999999999983 0
23 1 0.3749999999999987 0
24 1 0.2499999999999991 0
25 1 0.1249999999999996 0
26 0.8749999999999998 0 0
27 0.7499999999999993 0 0
28 0.6249999999999988 0 0
29 0.4999999999999983 0 0
30 0.3749999999999987 0 0
31 0.2499999999999991 0 0
32 0.1249999999999996 0 0
33 0.4697059259790857 0.8798343411594884 0
34 0.1039150528202775 0.4818601857055854 0
35 0.55788108179061 0.126662188753958 0
36 0.9097637963551484 0.5130759491829094 0
37 0.1009200351142396 0.6788643664631104 0
38 0.6992815214134473 0.8755407205746131 0
39 0.9131326020954492 0.304419142901227 0
40 0.3134754767125775 0.1165359687754214 0
41 0.7860529684705119 0.1157740894850322 0
42 0.1107343722458687 0.2397718819473781 0
43 0.8886598937984429 0.79633324590525 0
44 0.2335190281778268 0.8824160869467658 0
45 0.1081171075593408 0.3626645463171008 0
46 0.2184459524118137 0.3560638474610198 0
47 0.2102208057288559 0.4812775773930574 0
48 0.321423217856406 0.4852398000915408 0
49 0.3212441994227119 0.6195500348697688 0
50 0.4316019271953792 0.4889243598515978 0
51 0.42992799645184 0.3700781884919282 0
52 0.537383670778828 0.4958139235386633 0
53 0.5438765084663412 0.6253188798046014 0
54 0.6390522465397013 0.5037170261123829 0
55 0.6271842390164272 0.3744741260553888 0
56 0.6462788982321517 0.6315142763419153 0
57 0.7262100440750214 0.3787242193543344 0
58 0.6644876574001868 0.7532501293184585 0
59 0.7394217951505507 0.6325732313542108 0
60 0.6003580804147078 0.2507987230402615 0
61 0.5595819388521573 0.7532343312878932 0
62 0.4484657285749048 0.752294721825574 0
63 0.3330030456060572 0.7537130678398668 0
64 0.2174533303135095 0.7599941144400222 0
65 0.2224936382162697 0.2339226459380533 0
66 0.1847346179388 0.6216928788046261 0
67 0.9066594302207737 0.6385532232875806 0
68 0.6714638501618654 0.1215731851532018 0
69 0.500202481484437 0.2657930506972002 0
70 0.4511546093603999 0.1556044831186634 0
71 0.3494710213612618 0.225621330301336 0
72 0.91207775655026 0.3901663062152886 0
73 0.09905029343708593 0.5683781250041035 0
74 0.4364902532040175 0.6208415162826532 0
75 0.7320721664384386 0.5091265182552072 0
76 0.7995972829357172 0.8513815051426078 0
77 0.2296412889503807 0.1162209988910516 0
78 0.9063107578504047 0.1961109649912978 0
79 0.1072040323511788 0.7628721464434044 0
80 0.7063362269594233 0.2488486245076542 0
81 0.7583245311611572 0.741047473530102 0
82 0.3279046389109708 0.3621091050618813 0
83 0.5882569573239401 0.8778569774112447 0
84 0.5255025587088388 0.3766467927104737 0
85 0.3525622525033667 0.8796346288444392 0
86 0.1165712749300239 0.1199909171808515 0
87 0.1163927400997357 0.879792308283836 0
88 0.9251006559230243 0.8830065835294318 0
89 0.893441572937077 0.1140364068570046 0
90 0.4297798105604648 0.2892024419509167 0
91 0.8221868739909798 0.6341572796533606 0
92 0.8212939962624951 0.3870834072092093 0
93 0.8215177581842501 0.5120200842253655 0
94 0.8200745332428059 0.725572646104976 0
95 0.8318601049877422 0.2500993163376909 0
$EndNodes
$Elements
78
1 3 2 5 1 77 65 71 40
2 3 2 5 1 58 61 83 38
3 3 2 5 1 64 44 85 63
4 3 2 5 1 30 70 35 29
5 3 2 5 1 60 35 70 69
6 3 2 5 1 49 63 62 74
7 3 2 5 1 64 63 49 66
8 3 2 5 1 69 70 71 90
9 3 2 5 1 35 60 80 68
10 3 2 5 1 76 43 94 81
11 3 2 5 1 30 40 71 70
12 3 2 5 1 66 37 79 64
13 3 2 5 1 22 36 67 21
14 3 2 5 1 45 7 8 34
15 3 2 5 1 68 28 29 35
16 3 2 5 1 66 47 34 73
17 3 2 5 1 66 73 9 37
18 3 2 5 1 36 22 23 72
19 3 2 5 1 28 68 41 27
20 3 2 5 1 21 67 43 20
21 3 2 5 1 45 34 47 46
22 3 2 5 1 42 45 46 65
23 3 2 5 1 74 53 52 50
24 3 2 5 1 42 6 7 45
25 3 2 5 1 34 8 9 73
26 3 2 5 1 74 50 48 49
27 3 2 5 1 72 23 24 39
28 3 2 5 1 56 54 52 53
29 3 2 5 1 66 49 48 47
30 3 2 5 1 58 56 53 61
31 3 2 5 1 75 57 55 54
32 3 2 5 1 59 75 54 56
33 3 2 5 1 53 74 62 61
34 3 2 5 1 62 33 83 61
35 3 2 5 1 9 10 79 37
36 3 2 5 1 62 63 85 33
37 3 2 5 1 18 76 38 17
38 3 2 5 1 30 31 77 40
39 3 2 5 1 50 51 82 48
40 3 2 5 1 71 65 46 82
41 3 2 5 1 17 38 83 16
42 3 2 5 1 50 52 84 51
43 3 2 5 1 69 84 55 60
44 3 2 5 1 15 33 85 14
45 3 2 5 1 11 2 12 87
46 3 2 5 1 19 88 18 3
47 3 2 5 1 5 86 32 1
48 3 2 5 1 26 89 25 4
49 3 2 5 1 55 57 80 60
50 3 2 5 1 95 41 68 80
51 3 2 5 1 56 58 81 59
52 3 2 5 1 51 84 69 90
53 3 2 5 1 47 48 82 46
54 3 2 5 1 58 38 76 81
55 3 2 5 1 33 15 16 83
56 3 2 5 1 54 55 84 52
57 3 2 5 1 51 90 71 82
58 3 2 5 1 24 25 89 78
59 3 2 5 1 31 32 86 77
60 3 2 5 1 44 13 14 85
61 3 2 5 1 6 42 86 5
62 3 2 5 1 13 44 87 12
63 3 2 5 1 27 41 89 26
64 3 2 5 1 20 43 88 19
65 3 2 5 1 10 11 87 79
66 3 2 5 1 67 36 93 91
67 3 2 5 1 92 93 36 72
68 3 2 5 1 92 57 75 93
69 3 2 5 1 93 75 59 91
70 3 2 5 1 91 94 43 67
71 3 2 5 1 18 88 43 76
72 3 2 5 1 65 77 86 42
73 3 2 5 1 95 78 89 41
74 3 2 5 1 72 39 95 92
75 3 2 5 1 64 79 87 44
76 3 2 5 1 24 78 95 39
77 3 2 5 1 91 59 81 94
78 3 2 5 1 92 95 80 57
$EndElements
