$MeshFormat
2.2 0 8
$EndMeshFormat
$Nodes
144
1 0 0 0
2 0 1 0
3 1 1 0
4 1 0 0
5 0 0.8999999999995836 0
6 0 0.7999999999999998 0
7 0 0.7000000000006934 0
8 0 0.6000000000013869 0
9 0 0.5000000000020587 0
10 0 0.4000000000016644 0
11 0 0.3000000000012483 0
12 0 0.2000000000008322 0
13 0 0.100000000000416 0
14 0.09999999999981467 0 0
15 0.1999999999995579 0 0
16 0.2999999999992664 0 0
17 0.3999999999989749 0 0
18 0.4999999999986943 0 0
19 0.5999999999989468 0 0
20 0.69999999999921 0 0
21 0.7999999999994734 0 0
22 0.8999999999997368 0 0
23 1 0.8999999999995836 0
24 1 0.7999999999999998 0
25 1 0.7000000000006934 0
26 1 0.6000000000013869 0
27 1 0.5000000000020587 0
28 1 0.4000000000016644 0
29 1 0.3000000000012483 0
30 1 0.2000000000008322 0
31 1 0.100000000000416 0
32 0.8999999999995836 1 0
33 0.7999999999999998 1 0
34 0.7000000000006934 1 0
35 0.6000000000013869 1 0
36 0.5000000000020587 1 0
37 0.4000000000016644 1 0
38 0.3000000000012483 1 0
39 0.2000000000008322 1 0
40 0.100000000000416 1 0
41 0.4989750441953127 0.4917355970982472 0
42 0.7168734958285232 0.7208412480614436 0
43 0.2802207405894802 0.7218256569339211 0
44 0.3061264031271753 0.2712867819333305 0
45 0.7395041520879514 0.2944343340908241 0
46 0.4905004826905058 0.7893798982818607 0
47 0.7815580721767935 0.5200298783007521 0
48 0.212975395103832 0.4933731284496179 0
49 0.48449476843078 0.215997297276605 0
50 0.8177048472946974 0.818182278454827 0
51 0.1906657106432695 0.8092576336211484 0
52 0.1910954023152637 0.1876055492294812 0
53 0.8145516569947456 0.1871165632473318 0
54 0.6459272396574743 0.8357192041012855 0
55 0.8358560790198583 0.6304901897241297 0
56 0.147995936382337 0.630725690550116 0
57 0.3715325304508154 0.8461411116575857 0
58 0.1560729724179915 0.3712916497862273 0
59 0.8253414679486659 0.3576650709542034 0
60 0.3762623499676575 0.1630966539654437 0
61 0.6295972636107585 0.1533491084792562 0
62 0.5505432917900752 0.6201615912545968 0
63 0.3869119037808897 0.5566298661330549 0
64 0.6212678381604994 0.45500111284907 0
65 0.4277598699597586 0.3279319341935675 0
66 0.6697247433561452 0.5757052438988609 0
67 0.4413261054731555 0.6475772783970908 0
68 0.3827785133868695 0.4426838028355235 0
69 0.5432277096985391 0.3755479970544646 0
70 0.46246293132494 0.890614692898913 0
71 0.8903778262593781 0.462646953276565 0
72 0.1142478193215307 0.4629488705090732 0
73 0.5378275373322811 0.1060051455236838 0
74 0.9127586009502431 0.716176546522907 0
75 0.7189168052067932 0.9141436930308755 0
76 0.08926514648308612 0.7111159713832189 0
77 0.287296830334431 0.0878473723640322 0
78 0.2903503366216303 0.9088164704494552 0
79 0.09210949325501985 0.2898572640550752 0
80 0.7111811943551675 0.09048509838940516 0
81 0.910563315243076 0.2836296079690674 0
82 0.5904871848894476 0.7436645250028121 0
83 0.2532212594872274 0.6036725870393156 0
84 0.3981200830174278 0.2450686322917175 0
85 0.7353306579438024 0.4057453498351168 0
86 0.3947448269573888 0.7481945160487481 0
87 0.2581691286806811 0.3965986826915844 0
88 0.6059456858405834 0.2572023967329383 0
89 0.5879604936787995 0.537659122870266 0
90 0.9056443712477393 0.9057159528881096 0
91 0.09612293452494855 0.9038297440618988 0
92 0.09612077794864932 0.09567139393598119 0
93 0.9046685912312754 0.09535962550215289 0
94 0.5655145081664651 0.916172738232068 0
95 0.9199271455052416 0.5614465760425457 0
96 0.1249400852449417 0.567467909335477 0
97 0.4408051054204505 0.07942378582046448 0
98 0.7271935038459697 0.8258120458617021 0
99 0.3052903795956748 0.8044183562475148 0
100 0.1995841686480794 0.3037783271007328 0
101 0.8227539345263077 0.2781693431186352 0
102 0.822698261841318 0.7218092593794223 0
103 0.1941718880847172 0.6954244843333629 0
104 0.699512393662954 0.196681209809327 0
105 0.288902537253971 0.1785544535937718 0
106 0.7521962131497144 0.6098370931647346 0
107 0.4680187196868976 0.5862041203678091 0
108 0.4177703572725589 0.4976812496455226 0
109 0.5583690154034551 0.4376345489711185 0
110 0.7013664155405637 0.4872382705397189 0
111 0.3515214967799346 0.6569434610174389 0
112 0.3417498168049611 0.3613694998168093 0
113 0.6487706170237098 0.3554541850898915 0
114 0.9182312363953949 0.6248877394901187 0
115 0.6295109151164001 0.9170160906905627 0
116 0.089034978363151 0.6239231162955161 0
117 0.3782637176915071 0.08163991053673057 0
118 0.6198853987600406 0.08949543675488236 0
119 0.3808901809930992 0.909750186270656 0
120 0.09190856932817408 0.3807083004788526 0
121 0.907625064859255 0.3759327193671181 0
122 0.909303821202504 0.8100878888202676 0
123 0.8106795350360738 0.9097197185373582 0
124 0.09416820155007007 0.8052579937332007 0
125 0.1933549764836914 0.09224492291589885 0
126 0.1951907809800646 0.9050976722958511 0
127 0.0953246731066817 0.1943609809118335 0
128 0.8066424249237145 0.09369447722150441 0
129 0.9078813431794732 0.1912679465165158 0
130 0.6296800032823151 0.6621429071914804 0
131 0.4921177505639116 0.7101695605246503 0
132 0.2964994915352823 0.4996121703970493 0
133 0.516204022508454 0.2953044443930979 0
134 0.5486447726011171 0.8379886881721215 0
135 0.860895065863471 0.5440444612089241 0
136 0.1645340496016276 0.5571616689310228 0
137 0.4596240831388541 0.1371876666430988 0
138 0.4302366167112047 0.817471613615345 0
139 0.8088134184805336 0.4368907809522287 0
140 0.1860175603964364 0.4318790067262744 0
141 0.5680034076181845 0.181997211349805 0
142 0.4613859736787026 0.4060531128657089 0
143 0.6469682395514907 0.7702112057472097 0
144 0.7650144939028954 0.3529727822016845 0
$EndNodes
$Elements
167
1 15 2 0 1 1
2 15 2 0 2 2
3 15 2 0 3 3
4 15 2 0 4 4
5 1 2 0 1 2 5
6 1 2 0 1 5 6
7 1 2 0 1 6 7
8 1 2 0 1 7 8
9 1 2 0 1 8 9
10 1 2 0 1 9 10
11 1 2 0 1 10 11
12 1 2 0 1 11 12
13 1 2 0 1 12 13
14 1 2 0 1 13 1
15 1 2 0 2 1 14
16 1 2 0 2 14 15
17 1 2 0 2 15 16
18 1 2 0 2 16 17
19 1 2 0 2 17 18
20 1 2 0 2 18 19
21 1 2 0 2 19 20
22 1 2 0 2 20 21
23 1 2 0 2 21 22
24 1 2 0 2 22 4
25 1 2 0 3 3 23
26 1 2 0 3 23 24
27 1 2 0 3 24 25
28 1 2 0 3 25 26
29 1 2 0 3 26 27
30 1 2 0 3 27 28
31 1 2 0 3 28 29
32 1 2 0 3 29 30
33 1 2 0 3 30 31
34 1 2 0 3 31 4
35 1 2 0 4 3 32
36 1 2 0 4 32 33
37 1 2 0 4 33 34
38 1 2 0 4 34 35
39 1 2 0 4 35 36
40 1 2 0 4 36 37
41 1 2 0 4 37 38
42 1 2 0 4 38 39
43 1 2 0 4 39 40
44 1 2 0 4 40 2
45 3 2 0 1 23 3 32 90
46 3 2 0 1 14 92 13 1
47 3 2 0 1 5 91 40 2
48 3 2 0 1 22 4 31 93
49 3 2 0 1 66 130 62 89
50 3 2 0 1 60 84 44 105
51 3 2 0 1 18 19 118 73
52 3 2 0 1 36 37 119 70
53 3 2 0 1 9 10 120 72
54 3 2 0 1 27 71 121 28
55 3 2 0 1 142 65 133 69
56 3 2 0 1 106 66 110 47
57 3 2 0 1 107 67 111 63
58 3 2 0 1 142 68 112 65
59 3 2 0 1 63 108 41 107
60 3 2 0 1 62 107 41 89
61 3 2 0 1 110 64 113 85
62 3 2 0 1 103 83 111 43
63 3 2 0 1 65 112 44 84
64 3 2 0 1 64 109 69 113
65 3 2 0 1 131 46 138 86
66 3 2 0 1 132 48 140 87
67 3 2 0 1 133 49 141 88
68 3 2 0 1 25 24 122 74
69 3 2 0 1 34 75 123 33
70 3 2 0 1 7 76 124 6
71 3 2 0 1 16 77 125 15
72 3 2 0 1 20 21 128 80
73 3 2 0 1 38 39 126 78
74 3 2 0 1 11 12 127 79
75 3 2 0 1 29 81 129 30
76 3 2 0 1 41 109 64 89
77 3 2 0 1 36 70 134 94
78 3 2 0 1 27 95 135 71
79 3 2 0 1 9 72 136 96
80 3 2 0 1 18 73 137 97
81 3 2 0 1 24 23 90 122
82 3 2 0 1 33 123 90 32
83 3 2 0 1 15 125 92 14
84 3 2 0 1 6 124 91 5
85 3 2 0 1 39 40 91 126
86 3 2 0 1 21 22 93 128
87 3 2 0 1 12 13 92 127
88 3 2 0 1 30 129 93 31
89 3 2 0 1 130 82 131 62
90 3 2 0 1 111 83 132 63
91 3 2 0 1 134 70 138 46
92 3 2 0 1 135 47 139 71
93 3 2 0 1 136 72 140 48
94 3 2 0 1 119 57 138 70
95 3 2 0 1 120 58 140 72
96 3 2 0 1 121 71 139 59
97 3 2 0 1 137 73 141 49
98 3 2 0 1 118 61 141 73
99 3 2 0 1 98 75 115 54
100 3 2 0 1 102 55 114 74
101 3 2 0 1 99 57 119 78
102 3 2 0 1 103 76 116 56
103 3 2 0 1 100 58 120 79
104 3 2 0 1 101 81 121 59
105 3 2 0 1 104 61 118 80
106 3 2 0 1 105 77 117 60
107 3 2 0 1 42 130 66 106
108 3 2 0 1 65 84 49 133
109 3 2 0 1 54 134 82 143
110 3 2 0 1 62 131 67 107
111 3 2 0 1 63 132 68 108
112 3 2 0 1 55 102 42 106
113 3 2 0 1 102 74 122 50
114 3 2 0 1 98 50 123 75
115 3 2 0 1 103 51 124 76
116 3 2 0 1 99 78 126 51
117 3 2 0 1 105 52 125 77
118 3 2 0 1 100 79 127 52
119 3 2 0 1 104 80 128 53
120 3 2 0 1 101 53 129 81
121 3 2 0 1 131 82 134 46
122 3 2 0 1 103 56 136 83
123 3 2 0 1 132 83 136 48
124 3 2 0 1 60 137 49 84
125 3 2 0 1 131 86 111 67
126 3 2 0 1 99 43 111 86
127 3 2 0 1 132 87 112 68
128 3 2 0 1 100 44 112 87
129 3 2 0 1 133 88 113 69
130 3 2 0 1 104 45 113 88
131 3 2 0 1 50 98 42 102
132 3 2 0 1 51 103 43 99
133 3 2 0 1 52 105 44 100
134 3 2 0 1 53 101 45 104
135 3 2 0 1 66 89 64 110
136 3 2 0 1 110 85 139 47
137 3 2 0 1 130 42 143 82
138 3 2 0 1 113 45 144 85
139 3 2 0 1 123 50 122 90
140 3 2 0 1 124 51 126 91
141 3 2 0 1 125 52 127 92
142 3 2 0 1 128 93 129 53
143 3 2 0 1 85 144 59 139
144 3 2 0 1 36 94 115 35
145 3 2 0 1 27 26 114 95
146 3 2 0 1 9 96 116 8
147 3 2 0 1 18 97 117 17
148 3 2 0 1 47 135 55 106
149 3 2 0 1 74 114 26 25
150 3 2 0 1 75 34 35 115
151 3 2 0 1 76 7 8 116
152 3 2 0 1 77 16 17 117
153 3 2 0 1 80 118 19 20
154 3 2 0 1 78 119 37 38
155 3 2 0 1 79 120 10 11
156 3 2 0 1 81 29 28 121
157 3 2 0 1 99 86 138 57
158 3 2 0 1 100 87 140 58
159 3 2 0 1 104 88 141 61
160 3 2 0 1 115 94 134 54
161 3 2 0 1 114 55 135 95
162 3 2 0 1 116 96 136 56
163 3 2 0 1 117 97 137 60
164 3 2 0 1 54 143 42 98
165 3 2 0 1 59 144 45 101
166 3 2 0 1 69 109 41 142
167 3 2 0 1 68 142 41 108
$EndElements
