$MeshFormat
2.2 0 8
$EndMeshFormat
$Nodes
415
1 0 0 0
2 0 1 0
3 1 1 0
4 1 0 0
5 0 0.05555555555555564 0
6 0 0.1111111111111113 0
7 0 0.1666666666666669 0
8 0 0.2222222222222225 0
9 0 0.2777777777777781 0
10 0 0.3333333333333335 0
11 0 0.388888888888889 0
12 0 0.4444444444444445 0
13 0 0.4999999999999999 0
14 0 0.5555555555555554 0
15 0 0.6111111111111108 0
16 0 0.6666666666666663 0
17 0 0.7222222222222218 0
18 0 0.7777777777777772 0
19 0 0.8333333333333326 0
20 0 0.8888888888888881 0
21 0 0.9444444444444438 0
22 0.05555555555555564 1 0
23 0.1111111111111113 1 0
24 0.1666666666666669 1 0
25 0.2222222222222225 1 0
26 0.2777777777777781 1 0
27 0.3333333333333335 1 0
28 0.388888888888889 1 0
29 0.4444444444444445 1 0
30 0.4999999999999999 1 0
31 0.5555555555555554 1 0
32 0.6111111111111108 1 0
33 0.6666666666666663 1 0
34 0.7222222222222218 1 0
35 0.7777777777777772 1 0
36 0.8333333333333326 1 0
37 0.8888888888888881 1 0
38 0.9444444444444438 1 0
39 1 0.9444444444444444 0
40 1 0.8888888888888887 0
41 1 0.833333333333333 0
42 1 0.7777777777777775 0
43 1 0.7222222222222219 0
44 1 0.6666666666666665 0
45 1 0.6111111111111109 0
46 1 0.5555555555555556 0
47 1 0.5000000000000001 0
48 1 0.4444444444444446 0
49 1 0.3888888888888892 0
50 1 0.3333333333333337 0
51 1 0.2777777777777782 0
52 1 0.2222222222222228 0
53 1 0.1666666666666674 0
54 1 0.1111111111111119 0
55 1 0.05555555555555625 0
56 0.9444444444444444 0 0
57 0.8888888888888887 0 0
58 0.833333333333333 0 0
59 0.7777777777777775 0 0
60 0.7222222222222219 0 0
61 0.6666666666666665 0 0
62 0.6111111111111109 0 0
63 0.5555555555555556 0 0
64 0.5000000000000001 0 0
65 0.4444444444444446 0 0
66 0.3888888888888892 0 0
67 0.3333333333333337 0 0
68 0.2777777777777782 0 0
69 0.2222222222222228 0 0
70 0.1666666666666674 0 0
71 0.1111111111111119 0 0
72 0.05555555555555625 0 0
73 0.04811383524860813 0.5012388648246174 0
74 0.5419348505984294 0.05859397203055661 0
75 0.5451905877429351 0.9533582501090543 0
76 0.9570368917591516 0.5453382338390074 0
77 0.0473896361686505 0.2789200032887173 0
78 0.3176621073841924 0.9429655418586957 0
79 0.9543255678168857 0.3301133302228341 0
80 0.9391337617555826 0.690416958209229 0
81 0.3671320497873058 0.04446776807972297 0
82 0.6994512050240755 0.9518373943002862 0
83 0.04816477226781002 0.6670640337176131 0
84 0.2103653010469273 0.05062555114939493 0
85 0.2104640838398393 0.9475040983778111 0
86 0.7959161394407188 0.05118104273203578 0
87 0.04373787970157583 0.1886191388201919 0
88 0.04851916365078512 0.7789434064590219 0
89 0.9544839953946995 0.7940222364901942 0
90 0.8201542630643157 0.9373340032395356 0
91 0.04808639926661984 0.3898320534731092 0
92 0.4396457006007823 0.950174537515821 0
93 0.9531146434505019 0.2185603545109079 0
94 0.9548437559625935 0.4407527506754955 0
95 0.1038458970489646 0.05140621371192905 0
96 0.9187349121558914 0.9509100841094447 0
97 0.9505898479913779 0.1075567591485129 0
98 0.05020931738358009 0.8912110095427459 0
99 0.04827472232648289 0.7224814528229861 0
100 0.09642486920203547 0.722306960972947 0
101 0.09628262630593259 0.6668108815098729 0
102 0.1444939085973819 0.7225667378570672 0
103 0.1443744510302547 0.6669372372116926 0
104 0.1924442711237104 0.667126383709449 0
105 0.1924410222536816 0.6115048554242541 0
106 0.240549415806484 0.610017270111562 0
107 0.2405632175523065 0.5539319831986201 0
108 0.2886980101291822 0.6056827367797067 0
109 0.2887122186470533 0.5494901589504501 0
110 0.3369269270736605 0.59910462351801 0
111 0.3369562311293559 0.5427335370961657 0
112 0.3853136136652262 0.5340896584262169 0
113 0.3852501196352388 0.47742771044607 0
114 0.4336005892021615 0.5242873988127582 0
115 0.4334759407806518 0.467271322584764 0
116 0.4815036125001573 0.5159563929589058 0
117 0.3850915062057412 0.4214606464303713 0
118 0.4814100940417193 0.4586110905928429 0
119 0.5291208244054808 0.5116588449484928 0
120 0.5291690960054584 0.4539928753302419 0
121 0.5769871266868113 0.4540078864781047 0
122 0.3852113051793924 0.590834878572169 0
123 0.5772071062798886 0.3969239240933527 0
124 0.5292485247879076 0.3974427566327131 0
125 0.6252508793219915 0.40119437640567 0
126 0.625475280116575 0.3446562621673087 0
127 0.6733239229368697 0.4068886627034209 0
128 0.6731778266090053 0.4625655262549336 0
129 0.6735645756630344 0.3509373324202539 0
130 0.2405465365472974 0.6654437922658183 0
131 0.2405747225521029 0.4979883052538259 0
132 0.6258643774062596 0.2878965114467751 0
133 0.6742798119229588 0.294735662288244 0
134 0.721397464527971 0.3555814919666182 0
135 0.6265470675024463 0.2309669018534341 0
136 0.1451032856765963 0.7797679057047514 0
137 0.676130626725709 0.2377073005994559 0
138 0.724783852257087 0.2451975726377466 0
139 0.6273993826742232 0.1742044401456226 0
140 0.5780700237716824 0.2265980926693356 0
141 0.7357234052422432 0.18282456976138 0
142 0.7706113371617103 0.2117475842414288 0
143 0.579575770960718 0.1707598832267792 0
144 0.5296121388109355 0.2273485770663797 0
145 0.7823861400725136 0.1533940143132682 0
146 0.8003881781126387 0.1952636487493052 0
147 0.8112747488393566 0.2419969174984309 0
148 0.1443457252745315 0.6116920068754484 0
149 0.5293330960958312 0.2840672696193094 0
150 0.4810687841127687 0.2335935720055618 0
151 0.4814160910453376 0.1773178855208155 0
152 0.4331327193398999 0.1862734951237215 0
153 0.4330481410240479 0.2431339149891382 0
154 0.3859033964756121 0.1957302057002734 0
155 0.3853007696473337 0.2533220408181122 0
156 0.3374607302176673 0.2629066970594247 0
157 0.3370425475196148 0.3197144211829047 0
158 0.2893837645018662 0.2701020525444601 0
159 0.2889818397192254 0.3268258308306435 0
160 0.2905366966874961 0.2113808136315843 0
161 0.242257183919516 0.2154263039201844 0
162 0.2452867544611131 0.1573101166530422 0
163 0.1933275928202821 0.2170246497572084 0
164 0.1927355523381135 0.2753414009704189 0
165 0.2940999383870816 0.1532125439538083 0
166 0.1955422464734857 0.1592150839236075 0
167 0.1439406096816576 0.2762233660805442 0
168 0.1442678573077052 0.3332433029174917 0
169 0.3850520919264552 0.3097928553806104 0
170 0.1925501383873431 0.3329807253294479 0
171 0.1443363602624996 0.3894313786512197 0
172 0.1924920167548446 0.3892431199637886 0
173 0.1443443790407311 0.4450875114783976 0
174 0.6290355368692099 0.1210404597958718 0
175 0.8125678544244371 0.137034149412948 0
176 0.1924671611013449 0.4445672145569865 0
177 0.1443411070513362 0.5007134388983246 0
178 0.2406533263697841 0.3872607135082829 0
179 0.7179578099591954 0.1187401114694285 0
180 0.8566508771079445 0.2280305432535776 0
181 0.8605636630522469 0.284574100543968 0
182 0.8143154714696967 0.2951900060238527 0
183 0.8619409768006424 0.3400923139206614 0
184 0.8153573303850707 0.349981616268256 0
185 0.8624624091353787 0.3954706669743827 0
186 0.815768932141526 0.4052145916095015 0
187 0.8629001247166845 0.4506190608725162 0
188 0.8161006118570275 0.460430824542091 0
189 0.8640621207662883 0.5049631944900976 0
190 0.8169489970680357 0.5153876408471794 0
191 0.8676535344563414 0.5578261937918507 0
192 0.8195193971183612 0.5700458341280431 0
193 0.7694098750605928 0.5211712907161637 0
194 0.7706690222463857 0.576778755947718 0
195 0.7218751616759287 0.5775484593523191 0
196 0.7224530402358567 0.6348780317382154 0
197 0.7730617751948203 0.634716878154754 0
198 0.7227542463667505 0.6937885698715535 0
199 0.6737850342689538 0.689135528274142 0
200 0.6735473894155156 0.7480598488500212 0
201 0.6253480858531992 0.6857341315230596 0
202 0.77431664397744 0.6963181690688662 0
203 0.6254437977025007 0.7442722859835535 0
204 0.5771267166572737 0.742861901974061 0
205 0.5779471288224994 0.8003695663111781 0
206 0.5288227613938321 0.7443966140356139 0
207 0.6729736953429193 0.8062271402624007 0
208 0.5288816794287258 0.6862346039681712 0
209 0.4806892408039904 0.7485167411326465 0
210 0.4327521509328855 0.7540074065074255 0
211 0.4339544727256712 0.8088018276019037 0
212 0.3852071950310967 0.7605115932070536 0
213 0.6251888053984893 0.6283141069997751 0
214 0.3876937027466565 0.8151279308758437 0
215 0.3411727973785905 0.823312271082465 0
216 0.8371186365454533 0.6928956816823051 0
217 0.481637039259387 0.8040340232797829 0
218 0.3379207867060434 0.767787359612365 0
219 0.2898002854452821 0.7744338041924894 0
220 0.2936099784026434 0.8306183965467848 0
221 0.2416148251361113 0.7783366586771087 0
222 0.4809228246640203 0.6907814468186397 0
223 0.5290371260021058 0.6282202715411164 0
224 0.8757511730628718 0.6097271630561314 0
225 0.7722763089582183 0.758633649891427 0
226 0.8226878771885134 0.7617064441104897 0
227 0.7688337257562206 0.8180119836357891 0
228 0.2449404167096533 0.8350466061745703 0
229 0.1959144592089375 0.8368790506935178 0
230 0.8175916451063157 0.8203679240386137 0
231 0.4811778458961042 0.6329960777783642 0
232 0.7214469556622614 0.5212473801622167 0
233 0.6733784126584994 0.5745895235949786 0
234 0.7686886010226409 0.4104968327012024 0
235 0.8819509448498435 0.7155744016503836 0
236 0.8646064806384706 0.8169139367875304 0
237 0.8645689288826233 0.8723803733007627 0
238 0.5848008582161466 0.1168072861146331 0
239 0.6320227834931655 0.08714582779008773 0
240 0.7652598931106961 0.8737713473609241 0
241 0.7180664609787477 0.8652167450888906 0
242 0.9097818298002313 0.8611848603270514 0
243 0.9231690888651565 0.5930295365574977 0
244 0.91050746262283 0.4966560277882781 0
245 0.9086879064214797 0.388036646859087 0
246 0.9071226611520865 0.2768064724302187 0
247 0.3035019157426613 0.8862267113303558 0
248 0.2016678305344019 0.8929521005067933 0
249 0.1511773288470158 0.893143168955532 0
250 0.2530645405143694 0.8905179733541266 0
251 0.3520081365496019 0.8765402645838545 0
252 0.09527149398074947 0.2779595799877942 0
253 0.147335285387441 0.8368348886319366 0
254 0.09619165765175491 0.3897365823225022 0
255 0.2408024458343715 0.7213662317377509 0
256 0.09825738697978054 0.8364145152786333 0
257 0.4331934764517102 0.6398855413372444 0
258 0.09263459748969421 0.222826390419392 0
259 0.2405973520102412 0.4423214177709718 0
260 0.2887367578267329 0.4376851760249802 0
261 0.5290964501985657 0.5704382196681709 0
262 0.6731875417802452 0.5182285028516787 0
263 0.6249231754855036 0.5143756865693051 0
264 0.2887314102674297 0.4930893216679124 0
265 0.1924574597208236 0.4997558902904077 0
266 0.1443399637480066 0.556363788833155 0
267 0.09622770267857056 0.5012892889666792 0
268 0.1427013960624586 0.2188084392813037 0
269 0.143178744260068 0.1609403406753878 0
270 0.2012148810677221 0.10371069412895 0
271 0.1486397378998323 0.1047219399611878 0
272 0.2524980523775384 0.1021167746835814 0
273 0.09644951402973884 0.1039189798369979 0
274 0.3024077924369229 0.09863692011986647 0
275 0.3420562840497009 0.1468029466492483 0
276 0.08169775419473141 0.1634504346778143 0
277 0.04422344155189561 0.1411179116546982 0
278 0.72117805570331 0.4103372510914485 0
279 0.577643859117792 0.2841840245122251 0
280 0.5292840604691227 0.3412229946229954 0
281 0.4813423985839624 0.5752204199731263 0
282 0.7685309315940972 0.300658361188583 0
283 0.95230069689031 0.7406389174827039 0
284 0.9098596441533227 0.7553956068681285 0
285 0.7455622510740317 0.05538716910124003 0
286 0.7642701153532996 0.1073567791814593 0
287 0.5773976878072105 0.3414242329370243 0
288 0.4811851178266914 0.3467033756898262 0
289 0.7687193075873393 0.2483686753446836 0
290 0.09624460883733593 0.6120951688842644 0
291 0.09623110175041205 0.5567994994974851 0
292 0.4332456992946309 0.4114969336227766 0
293 0.3850125760470365 0.3656867164122427 0
294 0.8888321895411868 0.6576229211762608 0
295 0.04810779090663247 0.4453346471882448 0
296 0.433164859588017 0.1323156667111869 0
297 0.4814612687688595 0.1227567136897684 0
298 0.4316777779282213 0.09435453006349426 0
299 0.7685101640684785 0.3545051477008102 0
300 0.8256074031377911 0.6257429893272171 0
301 0.5770650412281553 0.6851600575150205 0
302 0.04790895179671528 0.3339878099257074 0
303 0.4927581377015296 0.952807434971408 0
304 0.4390425959134263 0.904481405648883 0
305 0.8456271952685774 0.05073757859020939 0
306 0.04812939002026245 0.6118848584047697 0
307 0.1924501999717259 0.5554313267564391 0
308 0.3850403305237294 0.7042871587728639 0
309 0.3370850519446619 0.7114741050751359 0
310 0.2890413343340803 0.7174057052999441 0
311 0.5309978304646417 0.1725799092426127 0
312 0.8451103988296844 0.1638335419630662 0
313 0.8524769795521163 0.1025828687262584 0
314 0.9021396019170664 0.162277621380707 0
315 0.5770061423112168 0.6273955535316378 0
316 0.7540158048661352 0.9353359402189407 0
317 0.0481178788900205 0.556470275571224 0
318 0.4811370308428796 0.2907555420589009 0
319 0.3388614747256068 0.2041994145670376 0
320 0.4329787425455406 0.6972378006468881 0
321 0.3850939028601841 0.6476326751808745 0
322 0.3369421444038749 0.6550445511745809 0
323 0.04546308436666668 0.225989207072589 0
324 0.7688743832852072 0.4649164702806144 0
325 0.722171259032414 0.7532099803435269 0
326 0.6736720765960423 0.6316851610561129 0
327 0.529865159252875 0.8010819064976974 0
328 0.5804731993460719 0.8551924648357005 0
329 0.5324099305390013 0.8547832847609755 0
330 0.5866975638667559 0.9062104205059607 0
331 0.6279839535601989 0.8571023573407868 0
332 0.6352919475438765 0.9073808680183444 0
333 0.6259950356777857 0.8019940504482267 0
334 0.1937499754928791 0.7793997969341387 0
335 0.7211827339617312 0.4651001755990781 0
336 0.8700664879980951 0.928631580562683 0
337 0.3162142293098085 0.04807330390600578 0
338 0.4331059239165949 0.3557305517336405 0
339 0.3369268358873071 0.3748632696107863 0
340 0.4812859458654545 0.4032961032936582 0
341 0.6739763718409968 0.8592543320069036 0
342 0.09622069129689675 0.4454039633905054 0
343 0.6250578468633863 0.4578934907010412 0
344 0.5769254587664548 0.5697584774801183 0
345 0.722071049501373 0.2991776967638773 0
346 0.192791138464388 0.7226592537509441 0
347 0.2408182232945207 0.3307605904334103 0
348 0.6250707571186274 0.5716286730988129 0
349 0.6767579767752269 0.1794393438833785 0
350 0.7206219724664302 0.8109314117460005 0
351 0.4333608335143907 0.5824804311931183 0
352 0.2412692210705631 0.2731661724672996 0
353 0.2887850738362919 0.6610590465668487 0
354 0.5769559355405227 0.5123305899150621 0
355 0.09595979734027049 0.3337216939877186 0
356 0.0970657482851599 0.7793913583326382 0
357 0.6722281561976385 0.1248368505889078 0
358 0.433064113600194 0.2997531524541691 0
359 0.2888154844535161 0.3818693344490203 0
360 0.3369489812053285 0.486122383008084 0
361 0.3369240696097345 0.4300968686849372 0
362 0.04915787986134601 0.8351500298674506 0
363 0.100880551592487 0.8922596377696282 0
364 0.10530786243582 0.9466978292228992 0
365 0.3882673201620347 0.1404637812591498 0
366 0.6044939060145923 0.06198650106798365 0
367 0.5977246770578616 0.9537122040587522 0
368 0.473514909612984 0.06348394430092169 0
369 0.4876602175472005 0.9051734989518142 0
370 0.8959844300632629 0.05204150671604091 0
371 0.04741824312169907 0.1043621708636778 0
372 0.9549570000631022 0.8994409137228974 0
373 0.3803629999431186 0.9337850421925193 0
374 0.4050802188707867 0.9000465281383865 0
375 0.4378179415840498 0.8585432368428461 0
376 0.6991767116692776 0.06557812804414626 0
377 0.715352865275942 0.9014439533873735 0
378 0.3513734286351128 0.09326044069518424 0
379 0.4167767423932583 0.03901678443833351 0
380 0.9546776573145992 0.8473965279780605 0
381 0.8690175142855866 0.7615321564446731 0
382 0.9093044553202878 0.7204931389482097 0
383 0.9363790368955729 0.6376500988219551 0
384 0.9566959574275425 0.5817021451795403 0
385 0.9139246545864885 0.547554636653815 0
386 0.9556360463127398 0.4956768251909288 0
387 0.9092213906723022 0.4437015164631672 0
388 0.9544923472134329 0.3866738812821109 0
389 0.9080969363571825 0.3334049173249171 0
390 0.9536802525650394 0.2755158683559251 0
391 0.9044623084990564 0.2207339813471865 0
392 0.9516756672405741 0.1635865163620255 0
393 0.816001132350076 0.8764437190079397 0
394 0.6453211347082728 0.04862787778530414 0
395 0.6493833810134761 0.9539019797339945 0
396 0.8162571832151468 0.0980375552873502 0
397 0.1573066780246754 0.05150990674438805 0
398 0.1582787369979368 0.946970402672406 0
399 0.9089014650848752 0.9136248488495727 0
400 0.5345232048392687 0.1171858565822637 0
401 0.2644573176982691 0.9454762246744792 0
402 0.2640923625834912 0.05014342552777551 0
403 0.8998095676408792 0.1062435010658077 0
404 0.05271815261904123 0.9456494505477656 0
405 0.05169278462710014 0.05301012973771285 0
406 0.9477212775478947 0.05377823638200674 0
407 0.952816800553774 0.9494213632037141 0
408 0.5378500522554936 0.9050069188068969 0
409 0.9002334548226472 0.687384991533185 0
410 0.9097816414286655 0.8069489808426814 0
411 0.4845579959727813 0.8557376078727335 0
412 0.3958652553857779 0.8646965087852667 0
413 0.394970898531136 0.08400925522596758 0
414 0.6601944572595173 0.07881130636511513 0
415 0.6823047090099259 0.9055000907143569 0
$EndNodes
$Elements
378
1 3 2 5 1 297 400 74 368
2 3 2 5 1 247 250 401 78
3 3 2 5 1 316 90 393 240
4 3 2 5 1 274 337 402 272
5 3 2 5 1 273 271 397 95
6 3 2 5 1 380 242 399 372
7 3 2 5 1 23 364 404 22
8 3 2 5 1 385 243 384 76
9 3 2 5 1 386 94 387 244
10 3 2 5 1 390 93 391 246
11 3 2 5 1 388 79 389 245
12 3 2 5 1 382 235 381 284
13 3 2 5 1 385 76 386 244
14 3 2 5 1 388 245 387 94
15 3 2 5 1 390 246 389 79
16 3 2 5 1 391 93 392 314
17 3 2 5 1 383 294 409 80
18 3 2 5 1 381 236 410 284
19 3 2 5 1 392 97 403 314
20 3 2 5 1 238 366 74 400
21 3 2 5 1 313 403 370 305
22 3 2 5 1 89 410 242 380
23 3 2 5 1 166 162 272 270
24 3 2 5 1 248 249 398 85
25 3 2 5 1 270 84 397 271
26 3 2 5 1 165 274 272 162
27 3 2 5 1 319 154 365 275
28 3 2 5 1 256 253 136 356
29 3 2 5 1 276 87 323 258
30 3 2 5 1 77 252 258 323
31 3 2 5 1 110 108 353 322
32 3 2 5 1 321 257 351 122
33 3 2 5 1 254 91 295 342
34 3 2 5 1 276 277 7 87
35 3 2 5 1 91 254 355 302
36 3 2 5 1 110 322 321 122
37 3 2 5 1 342 295 73 267
38 3 2 5 1 356 88 362 256
39 3 2 5 1 108 106 130 353
40 3 2 5 1 255 310 353 130
41 3 2 5 1 257 231 281 351
42 3 2 5 1 98 363 256 362
43 3 2 5 1 116 114 351 281
44 3 2 5 1 168 355 254 171
45 3 2 5 1 116 281 261 119
46 3 2 5 1 252 77 302 355
47 3 2 5 1 261 344 354 119
48 3 2 5 1 109 111 360 264
49 3 2 5 1 293 169 157 339
50 3 2 5 1 131 259 176 265
51 3 2 5 1 234 299 134 278
52 3 2 5 1 150 153 358 318
53 3 2 5 1 266 148 105 307
54 3 2 5 1 14 15 306 317
55 3 2 5 1 346 334 221 255
56 3 2 5 1 383 243 224 294
57 3 2 5 1 153 155 169 358
58 3 2 5 1 128 343 263 262
59 3 2 5 1 267 73 317 291
60 3 2 5 1 264 131 107 109
61 3 2 5 1 107 131 265 307
62 3 2 5 1 345 134 299 282
63 3 2 5 1 157 159 359 339
64 3 2 5 1 307 105 106 107
65 3 2 5 1 149 318 288 280
66 3 2 5 1 333 331 341 207
67 3 2 5 1 8 9 77 323
68 3 2 5 1 317 73 13 14
69 3 2 5 1 309 218 212 308
70 3 2 5 1 216 294 224 300
71 3 2 5 1 280 288 340 124
72 3 2 5 1 43 283 89 42
73 3 2 5 1 319 156 155 154
74 3 2 5 1 187 188 190 189
75 3 2 5 1 230 226 225 227
76 3 2 5 1 278 335 324 234
77 3 2 5 1 177 266 307 265
78 3 2 5 1 124 120 121 123
79 3 2 5 1 287 123 125 126
80 3 2 5 1 206 209 217 327
81 3 2 5 1 275 165 160 319
82 3 2 5 1 60 285 86 59
83 3 2 5 1 214 212 218 215
84 3 2 5 1 335 278 127 128
85 3 2 5 1 221 219 310 255
86 3 2 5 1 250 247 220 228
87 3 2 5 1 136 253 229 334
88 3 2 5 1 350 207 341 241
89 3 2 5 1 257 321 308 320
90 3 2 5 1 16 17 99 83
91 3 2 5 1 292 117 113 115
92 3 2 5 1 340 292 115 118
93 3 2 5 1 338 293 117 292
94 3 2 5 1 343 125 123 121
95 3 2 5 1 287 279 149 280
96 3 2 5 1 190 193 194 192
97 3 2 5 1 206 208 222 209
98 3 2 5 1 7 8 323 87
99 3 2 5 1 83 306 15 16
100 3 2 5 1 305 58 59 86
101 3 2 5 1 290 306 83 101
102 3 2 5 1 354 121 120 119
103 3 2 5 1 278 134 129 127
104 3 2 5 1 319 160 158 156
105 3 2 5 1 271 269 166 270
106 3 2 5 1 268 258 252 167
107 3 2 5 1 366 238 174 239
108 3 2 5 1 291 266 177 267
109 3 2 5 1 315 301 201 213
110 3 2 5 1 334 229 228 221
111 3 2 5 1 368 298 296 297
112 3 2 5 1 118 120 124 340
113 3 2 5 1 150 144 311 151
114 3 2 5 1 170 164 167 168
115 3 2 5 1 293 338 358 169
116 3 2 5 1 299 184 182 282
117 3 2 5 1 234 186 184 299
118 3 2 5 1 121 354 263 343
119 3 2 5 1 283 43 44 80
120 3 2 5 1 285 60 61 376
121 3 2 5 1 318 149 144 150
122 3 2 5 1 152 151 297 296
123 3 2 5 1 169 155 156 157
124 3 2 5 1 268 167 164 163
125 3 2 5 1 11 12 295 91
126 3 2 5 1 316 35 36 90
127 3 2 5 1 90 36 37 336
128 3 2 5 1 399 336 37 96
129 3 2 5 1 100 102 103 101
130 3 2 5 1 148 103 104 105
131 3 2 5 1 282 289 138 345
132 3 2 5 1 311 144 140 143
133 3 2 5 1 352 158 160 161
134 3 2 5 1 265 176 173 177
135 3 2 5 1 335 232 193 324
136 3 2 5 1 212 210 320 308
137 3 2 5 1 125 127 129 126
138 3 2 5 1 168 171 172 170
139 3 2 5 1 171 173 176 172
140 3 2 5 1 172 176 259 178
141 3 2 5 1 183 184 186 185
142 3 2 5 1 202 197 196 198
143 3 2 5 1 225 202 198 325
144 3 2 5 1 333 203 204 205
145 3 2 5 1 210 209 222 320
146 3 2 5 1 208 301 315 223
147 3 2 5 1 227 225 325 350
148 3 2 5 1 128 262 232 335
149 3 2 5 1 276 269 271 273
150 3 2 5 1 205 328 331 333
151 3 2 5 1 66 67 337 81
152 3 2 5 1 132 135 140 279
153 3 2 5 1 135 137 349 139
154 3 2 5 1 289 142 141 138
155 3 2 5 1 147 180 312 146
156 3 2 5 1 152 154 155 153
157 3 2 5 1 163 166 269 268
158 3 2 5 1 171 254 342 173
159 3 2 5 1 185 186 188 187
160 3 2 5 1 280 124 123 287
161 3 2 5 1 126 132 279 287
162 3 2 5 1 312 175 145 146
163 3 2 5 1 266 291 290 148
164 3 2 5 1 156 158 159 157
165 3 2 5 1 355 168 167 252
166 3 2 5 1 141 179 357 349
167 3 2 5 1 186 234 324 188
168 3 2 5 1 258 268 269 276
169 3 2 5 1 288 338 292 340
170 3 2 5 1 106 108 109 107
171 3 2 5 1 360 111 112 113
172 3 2 5 1 133 132 126 129
173 3 2 5 1 137 133 345 138
174 3 2 5 1 138 141 349 137
175 3 2 5 1 135 139 143 140
176 3 2 5 1 139 174 238 143
177 3 2 5 1 153 150 151 152
178 3 2 5 1 192 191 189 190
179 3 2 5 1 197 300 192 194
180 3 2 5 1 210 211 217 209
181 3 2 5 1 220 215 218 219
182 3 2 5 1 208 223 231 222
183 3 2 5 1 223 261 281 231
184 3 2 5 1 308 321 322 309
185 3 2 5 1 302 77 9 10
186 3 2 5 1 10 11 91 302
187 3 2 5 1 303 30 31 75
188 3 2 5 1 120 118 116 119
189 3 2 5 1 113 117 361 360
190 3 2 5 1 343 128 127 125
191 3 2 5 1 144 149 279 140
192 3 2 5 1 286 179 141 145
193 3 2 5 1 289 147 146 142
194 3 2 5 1 182 181 180 147
195 3 2 5 1 166 163 161 162
196 3 2 5 1 232 195 194 193
197 3 2 5 1 233 326 196 195
198 3 2 5 1 198 196 326 199
199 3 2 5 1 326 213 201 199
200 3 2 5 1 301 208 206 204
201 3 2 5 1 329 328 205 327
202 3 2 5 1 219 221 228 220
203 3 2 5 1 131 264 260 259
204 3 2 5 1 348 263 354 344
205 3 2 5 1 158 352 347 159
206 3 2 5 1 165 162 161 160
207 3 2 5 1 163 164 352 161
208 3 2 5 1 184 183 181 182
209 3 2 5 1 147 289 282 182
210 3 2 5 1 199 200 325 198
211 3 2 5 1 344 315 213 348
212 3 2 5 1 328 330 332 331
213 3 2 5 1 73 295 12 13
214 3 2 5 1 267 177 173 342
215 3 2 5 1 250 228 229 248
216 3 2 5 1 229 253 249 248
217 3 2 5 1 99 100 101 83
218 3 2 5 1 103 102 346 104
219 3 2 5 1 101 103 148 290
220 3 2 5 1 122 112 111 110
221 3 2 5 1 114 112 122 351
222 3 2 5 1 118 115 114 116
223 3 2 5 1 132 133 137 135
224 3 2 5 1 88 99 17 18
225 3 2 5 1 130 106 105 104
226 3 2 5 1 108 110 111 109
227 3 2 5 1 112 114 115 113
228 3 2 5 1 347 352 164 170
229 3 2 5 1 159 347 178 359
230 3 2 5 1 18 19 362 88
231 3 2 5 1 100 99 88 356
232 3 2 5 1 255 130 104 346
233 3 2 5 1 306 290 291 317
234 3 2 5 1 146 145 141 142
235 3 2 5 1 262 233 195 232
236 3 2 5 1 300 197 202 216
237 3 2 5 1 219 218 309 310
238 3 2 5 1 344 261 223 315
239 3 2 5 1 203 200 199 201
240 3 2 5 1 301 204 203 201
241 3 2 5 1 327 205 204 206
242 3 2 5 1 350 241 240 227
243 3 2 5 1 213 326 233 348
244 3 2 5 1 92 29 30 303
245 3 2 5 1 82 34 35 316
246 3 2 5 1 178 347 170 172
247 3 2 5 1 350 325 200 207
248 3 2 5 1 357 174 139 349
249 3 2 5 1 191 192 300 224
250 3 2 5 1 197 194 195 196
251 3 2 5 1 210 212 214 211
252 3 2 5 1 231 257 320 222
253 3 2 5 1 133 129 134 345
254 3 2 5 1 193 190 188 324
255 3 2 5 1 200 203 333 207
256 3 2 5 1 262 263 348 233
257 3 2 5 1 216 202 225 226
258 3 2 5 1 334 346 102 136
259 3 2 5 1 259 260 359 178
260 3 2 5 1 310 309 322 353
261 3 2 5 1 117 293 339 361
262 3 2 5 1 338 288 318 358
263 3 2 5 1 102 100 356 136
264 3 2 5 1 339 359 260 361
265 3 2 5 1 98 362 19 20
266 3 2 5 1 249 253 256 363
267 3 2 5 1 264 360 361 260
268 3 2 5 1 412 374 304 375
269 3 2 5 1 152 296 365 154
270 3 2 5 1 62 63 74 366
271 3 2 5 1 32 367 75 31
272 3 2 5 1 247 78 373 251
273 3 2 5 1 276 273 371 277
274 3 2 5 1 63 64 368 74
275 3 2 5 1 29 92 373 28
276 3 2 5 1 92 303 369 304
277 3 2 5 1 237 393 90 336
278 3 2 5 1 64 65 379 368
279 3 2 5 1 270 272 402 84
280 3 2 5 1 179 286 285 376
281 3 2 5 1 7 277 371 6
282 3 2 5 1 58 305 370 57
283 3 2 5 1 248 85 401 250
284 3 2 5 1 330 408 75 367
285 3 2 5 1 42 89 380 41
286 3 2 5 1 230 236 381 226
287 3 2 5 1 181 246 391 180
288 3 2 5 1 224 243 385 191
289 3 2 5 1 216 226 381 235
290 3 2 5 1 46 47 386 76
291 3 2 5 1 48 49 388 94
292 3 2 5 1 185 245 389 183
293 3 2 5 1 52 53 392 93
294 3 2 5 1 50 51 390 79
295 3 2 5 1 189 244 387 187
296 3 2 5 1 227 240 393 230
297 3 2 5 1 34 82 395 33
298 3 2 5 1 330 367 395 332
299 3 2 5 1 313 305 86 396
300 3 2 5 1 69 70 397 84
301 3 2 5 1 25 85 398 24
302 3 2 5 1 151 311 400 297
303 3 2 5 1 27 78 401 26
304 3 2 5 1 67 68 402 337
305 3 2 5 1 413 378 275 365
306 3 2 5 1 327 217 411 329
307 3 2 5 1 55 4 56 406
308 3 2 5 1 72 1 5 405
309 3 2 5 1 21 2 22 404
310 3 2 5 1 363 98 404 364
311 3 2 5 1 78 27 28 373
312 3 2 5 1 247 251 215 220
313 3 2 5 1 414 357 179 376
314 3 2 5 1 415 377 241 341
315 3 2 5 1 216 235 409 294
316 3 2 5 1 38 3 39 407
317 3 2 5 1 316 240 241 377
318 3 2 5 1 373 92 304 374
319 3 2 5 1 145 175 396 286
320 3 2 5 1 412 375 211 214
321 3 2 5 1 274 378 81 337
322 3 2 5 1 415 82 316 377
323 3 2 5 1 165 275 378 274
324 3 2 5 1 81 379 65 66
325 3 2 5 1 312 313 396 175
326 3 2 5 1 372 40 41 380
327 3 2 5 1 284 283 80 382
328 3 2 5 1 80 44 45 383
329 3 2 5 1 244 189 191 385
330 3 2 5 1 243 383 45 384
331 3 2 5 1 76 384 45 46
332 3 2 5 1 94 386 47 48
333 3 2 5 1 79 388 49 50
334 3 2 5 1 245 185 187 387
335 3 2 5 1 93 390 51 52
336 3 2 5 1 246 181 183 389
337 3 2 5 1 314 312 180 391
338 3 2 5 1 97 392 53 54
339 3 2 5 1 328 329 408 330
340 3 2 5 1 236 230 393 237
341 3 2 5 1 366 394 61 62
342 3 2 5 1 367 32 33 395
343 3 2 5 1 285 286 396 86
344 3 2 5 1 95 397 70 71
345 3 2 5 1 363 364 398 249
346 3 2 5 1 364 23 24 398
347 3 2 5 1 336 399 242 237
348 3 2 5 1 143 238 400 311
349 3 2 5 1 85 25 26 401
350 3 2 5 1 84 402 68 69
351 3 2 5 1 411 369 408 329
352 3 2 5 1 237 242 410 236
353 3 2 5 1 312 314 403 313
354 3 2 5 1 57 370 406 56
355 3 2 5 1 6 371 405 5
356 3 2 5 1 211 375 411 217
357 3 2 5 1 61 394 414 376
358 3 2 5 1 37 38 407 96
359 3 2 5 1 54 55 406 97
360 3 2 5 1 71 72 405 95
361 3 2 5 1 20 21 404 98
362 3 2 5 1 378 413 379 81
363 3 2 5 1 303 75 408 369
364 3 2 5 1 283 284 410 89
365 3 2 5 1 215 251 412 214
366 3 2 5 1 296 298 413 365
367 3 2 5 1 331 332 415 341
368 3 2 5 1 174 357 414 239
369 3 2 5 1 403 97 406 370
370 3 2 5 1 273 95 405 371
371 3 2 5 1 399 96 407 372
372 3 2 5 1 40 372 407 39
373 3 2 5 1 373 374 412 251
374 3 2 5 1 369 411 375 304
375 3 2 5 1 235 382 80 409
376 3 2 5 1 366 239 414 394
377 3 2 5 1 82 415 332 395
378 3 2 5 1 368 379 413 298
$EndElements
