$MeshFormat
2.2 0 8
$EndMeshFormat
$Nodes
282
1 0 0 0
2 0 1 0
3 1 1 0
4 1 0 0
5 0 0.9285714285711314 0
6 0 0.8571428571424611 0
7 0 0.7857142857143855 0
8 0 0.7142857142863099 0
9 0 0.6428571428582344 0
10 0 0.5714285714301588 0
11 0 0.5000000000020616 0
12 0 0.4285714285732146 0
13 0 0.3571428571443458 0
14 0 0.2857142857154765 0
15 0 0.2142857142866074 0
16 0 0.1428571428577383 0
17 0 0.07142857142886905 0
18 0.07142857142842934 0 0
19 0.1428571428568666 0 0
20 0.2142857142852295 0 0
21 0.2857142857135924 0 0
22 0.3571428571419552 0 0
23 0.4285714285703181 0 0
24 0.4999999999986918 0 0
25 0.5714285714274404 0 0
26 0.6428571428562001 0 0
27 0.71428571428496 0 0
28 0.78571428571372 0 0
29 0.8571428571424801 0 0
30 0.92857142857124 0 0
31 1 0.9285714285711314 0
32 1 0.8571428571424611 0
33 1 0.7857142857143855 0
34 1 0.7142857142863099 0
35 1 0.6428571428582344 0
36 1 0.5714285714301588 0
37 1 0.5000000000020616 0
38 1 0.4285714285732146 0
39 1 0.3571428571443458 0
40 1 0.2857142857154765 0
41 1 0.2142857142866074 0
42 1 0.1428571428577383 0
43 1 0.07142857142886905 0
44 0.9285714285711314 1 0
45 0.8571428571424611 1 0
46 0.7857142857143855 1 0
47 0.7142857142863099 1 0
48 0.6428571428582344 1 0
49 0.5714285714301588 1 0
50 0.5000000000020616 1 0
51 0.4285714285732146 1 0
52 0.3571428571443458 1 0
53 0.2857142857154765 1 0
54 0.2142857142866074 1 0
55 0.1428571428577383 1 0
56 0.07142857142886905 1 0
57 0.5028244678792051 0.5085662656643294 0
58 0.713650577888383 0.7156076726455226 0
59 0.2731617026209472 0.7297539400677217 0
60 0.2823005938475993 0.3045609257124274 0
61 0.6942035894799583 0.2808424199631226 0
62 0.5107330265905794 0.7830538906365465 0
63 0.7764774794880196 0.4999762451387069 0
64 0.2175584020955555 0.5020159141794703 0
65 0.4912170814934368 0.2184135439293605 0
66 0.8140515926962671 0.8169617348418481 0
67 0.185457816785414 0.8191678777855769 0
68 0.1787996409005431 0.1820475973659953 0
69 0.8201605912489299 0.1794695502107727 0
70 0.5583215910452602 0.6244997063292066 0
71 0.3845910193776015 0.5572059747459365 0
72 0.6330428349975763 0.4224389522834396 0
73 0.4482486045338919 0.3850244405421478 0
74 0.6478196197354699 0.8255129966739687 0
75 0.8323563580442169 0.6548300651312107 0
76 0.1694383311621731 0.6534150827104408 0
77 0.3596418567302128 0.1626168911122101 0
78 0.3714141681531322 0.8540180305597164 0
79 0.1637209390251256 0.3516504439479347 0
80 0.8469379062583714 0.3571656812209645 0
81 0.6278029828654961 0.1475435949840494 0
82 0.6762330651638443 0.5807337785220026 0
83 0.4404146144069915 0.6729980925733178 0
84 0.3248421903778255 0.4320928677729376 0
85 0.5735822235190955 0.3280413140822907 0
86 0.4878238946738275 0.8839895753720595 0
87 0.1122224472782509 0.4754886725854134 0
88 0.8867912149941919 0.4751403143651228 0
89 0.5125451058074286 0.1161501638431753 0
90 0.7324233423904136 0.8847769163104849 0
91 0.8850810493125771 0.7391149385407985 0
92 0.1157354975477636 0.7390355000664108 0
93 0.2651885620015061 0.121210459505974 0
94 0.2642773696697112 0.8931746191094764 0
95 0.1185287237716126 0.2827842710973936 0
96 0.7381172914912704 0.110398077908908 0
97 0.8802828601563123 0.2829314454714923 0
98 0.6170528475830652 0.7460016580615063 0
99 0.2567399560714061 0.6215334768784926 0
100 0.3961680152511626 0.2620556007343928 0
101 0.7334906444326029 0.39819148295895 0
102 0.8874960035588805 0.8902196846617754 0
103 0.1097902974838142 0.1128433059988254 0
104 0.1123689888805618 0.8907539589105131 0
105 0.8903156860581363 0.1122963242440247 0
106 0.5950205542351674 0.5299281592677224 0
107 0.3783395518267323 0.7414191754849563 0
108 0.2434581017897011 0.3836531637630777 0
109 0.6140698509193725 0.2439413714970334 0
110 0.5631634988904637 0.8989789409498933 0
111 0.9241715316559826 0.5433007402015565 0
112 0.07484257613762828 0.5436747643113121 0
113 0.4380042692355099 0.1004476781335378 0
114 0.8147891058048081 0.7322050298052377 0
115 0.1850622775535648 0.7340940255915964 0
116 0.1992613455184114 0.2613621569230832 0
117 0.8052450266416626 0.2476027315671359 0
118 0.7279011622585594 0.8146167285722871 0
119 0.2711290318963031 0.8239569666357256 0
120 0.2475357939397192 0.1912721728406379 0
121 0.7376706642589311 0.1917949332523304 0
122 0.4725132620777645 0.5908604440971302 0
123 0.414453471727891 0.4718311989841266 0
124 0.5510579793398568 0.4310457430627535 0
125 0.7593107162481406 0.6256048456327834 0
126 0.6882647618351544 0.4854815820101268 0
127 0.3638407484825306 0.6436594170855852 0
128 0.3618239644818048 0.3458656409943875 0
129 0.6576506089518938 0.3590579158946674 0
130 0.8029077078936256 0.9184426558836146 0
131 0.9174402199056084 0.8062455668490467 0
132 0.082706934483797 0.8065278620888222 0
133 0.1949713400006042 0.08403631999484681 0
134 0.08117595117572546 0.1986451181051005 0
135 0.1958068857021267 0.9206943345746196 0
136 0.806473634838684 0.08119815911599154 0
137 0.9185667392549764 0.1980966661373027 0
138 0.6026137300529244 0.06675135582164225 0
139 0.3973606757023004 0.9339040576053956 0
140 0.07587384805493008 0.3905948973008355 0
141 0.9251573598848755 0.3913318295909088 0
142 0.6386981063654288 0.6611084078627512 0
143 0.5264949373553404 0.7097012687363385 0
144 0.2928235914204507 0.5230030530636085 0
145 0.479250084819093 0.2947480339796309 0
146 0.6534474689707911 0.9209445003555095 0
147 0.918374712548727 0.6779044494687566 0
148 0.08206532189287914 0.6776098518391223 0
149 0.3487770465986149 0.08064474612295734 0
150 0.5760940829183746 0.8163962896713475 0
151 0.8365414504416295 0.5682980040625762 0
152 0.1604803001956576 0.5669912802229635 0
153 0.424530628388578 0.183954986987301 0
154 0.4764846724948281 0.4487361187781662 0
155 0.4472170877019382 0.8163396994281794 0
156 0.8101911547384972 0.4350864613618565 0
157 0.1877679189949025 0.4357284132615634 0
158 0.5529404033967341 0.1830943682972145 0
159 0.2213006372619702 0.6868224087208427 0
160 0.7706698403507928 0.3202661698092271 0
161 0.6684338597809674 0.06384105342580733 0
162 0.3318166703818178 0.9375455596281145 0
163 0.05729108785215001 0.3207564467607464 0
164 0.9428082057499331 0.3213230925054539 0
165 0.7474060609389539 0.5513276350760181 0
166 0.41551813817805 0.6150581695090925 0
167 0.5118387210349673 0.3572644249184724 0
168 0.4639340634942175 0.746116670350496 0
169 0.2529271384117234 0.456539513568841 0
170 0.5407249445567509 0.2530882878868332 0
171 0.617111713584101 0.6016845565234148 0
172 0.2252082371399647 0.32516607506274 0
173 0.6785545566964301 0.7781447925051964 0
174 0.321442086711166 0.224759894581135 0
175 0.3871416530708198 0.4088634026055249 0
176 0.5308123082277234 0.565369119585562 0
177 0.4436790922195593 0.5320661897965936 0
178 0.5165066160920011 0.9266184729980413 0
179 0.957837776340925 0.4960204539084408 0
180 0.04191082962589043 0.4962961128492314 0
181 0.4838903268743865 0.07339654245821581 0
182 0.5943138466595723 0.937450732480119 0
183 0.9301655579149074 0.6046765000167346 0
184 0.06919569614669049 0.6045875969358445 0
185 0.4067929407467463 0.06228044035400353 0
186 0.3196133163319175 0.786048001352983 0
187 0.6699409785651667 0.2182313073417859 0
188 0.7808981822036921 0.6824074371396621 0
189 0.5161425457339156 0.8388358921532145 0
190 0.8259834014754029 0.4938368211420396 0
191 0.1710313249019891 0.4936994935459343 0
192 0.4849332104369947 0.161265928779607 0
193 0.1374826404433915 0.7026668602123632 0
194 0.158760650987286 0.2975927888428642 0
195 0.8258438143567104 0.301481041136771 0
196 0.7677616363499669 0.8581525611072387 0
197 0.2305536556750954 0.8638048821971762 0
198 0.2246106316099242 0.1445129526497059 0
199 0.7746875172814771 0.138764610358363 0
200 0.7138445433319389 0.3394307416782026 0
201 0.6058117481225773 0.3849250704863726 0
202 0.7268440071922611 0.9317108886175182 0
203 0.9382343633810795 0.7392631034187427 0
204 0.06217702379057809 0.7391009967942244 0
205 0.2738358559196232 0.07229640650373027 0
206 0.7381706212432957 0.06111778526957375 0
207 0.2622866188791261 0.9410151321591813 0
208 0.06280572950957762 0.2755653762138066 0
209 0.9369827007088747 0.2756116660490909 0
210 0.7549054443305651 0.456470565731404 0
211 0.4212834954261093 0.3219287159208155 0
212 0.5472934911551277 0.4909107795134032 0
213 0.9348879384034836 0.9358092736684998 0
214 0.06418271333868406 0.06524158878728707 0
215 0.06511464082337309 0.9359641245923431 0
216 0.9358486823104296 0.06512947644850077 0
217 0.8573396697353016 0.7721899743803863 0
218 0.1427400992327843 0.7731266384009794 0
219 0.1435250494395508 0.2309590485872626 0
220 0.8555124978260399 0.2283918855211768 0
221 0.692906946773764 0.8605332169761972 0
222 0.3073398549014299 0.1568364187453015 0
223 0.3064704426657207 0.8781964906633534 0
224 0.6948438030176869 0.1260569729558991 0
225 0.8633620465488359 0.7023769057958483 0
226 0.5371232780156845 0.06566836735992197 0
227 0.4628939937079313 0.9345851738726486 0
228 0.9441005067744394 0.4498808735684023 0
229 0.05586381638513993 0.4499596758964514 0
230 0.552748182793385 0.7648948119265112 0
231 0.4503890535020105 0.2382459857629732 0
232 0.4991710015703945 0.6504835493009774 0
233 0.3534000200841652 0.4959562498786389 0
234 0.654919443582232 0.705497391555814 0
235 0.6977311012023963 0.642304531977778 0
236 0.3262183609260818 0.5855514580243188 0
237 0.5836118061200778 0.6837630485159755 0
238 0.2334419951861609 0.5477148888282554 0
239 0.4409499765486249 0.8751816541377977 0
240 0.5590347543899167 0.1250424312391495 0
241 0.8668000980491354 0.4146483721355118 0
242 0.1337527427109046 0.4148330595741268 0
243 0.6559073910697788 0.5346226287494202 0
244 0.1938876106710351 0.6154050028887807 0
245 0.3957153481240643 0.6844274919924344 0
246 0.302405778666782 0.3672691617236531 0
247 0.6342091531419993 0.3019709783302909 0
248 0.6765820606841578 0.4146337473721843 0
249 0.3404135991316191 0.2843637413506958 0
250 0.8726820900431786 0.9356601167325703 0
251 0.9342342282726206 0.8743772541289848 0
252 0.065736227492749 0.8747044614158775 0
253 0.1257114103662789 0.06605518757108633 0
254 0.06429479368938634 0.1276986948547494 0
255 0.1271292710556519 0.9361526194616442 0
256 0.8745224071553329 0.06544068884779902 0
257 0.9356963165653835 0.1273991371287896 0
258 0.7904839688264879 0.3778138921828452 0
259 0.7687427231209043 0.7708160236930965 0
260 0.2651251690051639 0.24487864308581 0
261 0.7514707287892251 0.2622849581800514 0
262 0.8564631581039716 0.8591203251716064 0
263 0.1431412947278169 0.8604716338225858 0
264 0.1402294138026979 0.1435084529163391 0
265 0.859687650496413 0.1418265051383482 0
266 0.6084748295430183 0.8637622161649097 0
267 0.8854703328675203 0.626320480332882 0
268 0.114220504860772 0.6257186990291556 0
269 0.3925891032081766 0.1352086939913854 0
270 0.6134001579253402 0.7982393510369596 0
271 0.3745533847551864 0.206402422587226 0
272 0.2288840951161586 0.7764908685708358 0
273 0.2092363474141058 0.2098513001209087 0
274 0.7899768417155003 0.2075316725603633 0
275 0.6184654610332222 0.4637172527459221 0
276 0.3173757468187374 0.6841080073016422 0
277 0.2002213950328008 0.3930707677001002 0
278 0.8073839332950503 0.6174070662579907 0
279 0.4012269995967834 0.8035953455855329 0
280 0.5966136702476301 0.1944089209620745 0
281 0.09879275154963298 0.3359968067220869 0
282 0.9017589363670143 0.3375277304238448 0
$EndNodes
$Elements
313
1 15 2 0 1 1
2 15 2 0 2 2
3 15 2 0 3 3
4 15 2 0 4 4
5 1 2 0 1 2 5
6 1 2 0 1 5 6
7 1 2 0 1 6 7
8 1 2 0 1 7 8
9 1 2 0 1 8 9
10 1 2 0 1 9 10
11 1 2 0 1 10 11
12 1 2 0 1 11 12
13 1 2 0 1 12 13
14 1 2 0 1 13 14
15 1 2 0 1 14 15
16 1 2 0 1 15 16
17 1 2 0 1 16 17
18 1 2 0 1 17 1
19 1 2 0 2 1 18
20 1 2 0 2 18 19
21 1 2 0 2 19 20
22 1 2 0 2 20 21
23 1 2 0 2 21 22
24 1 2 0 2 22 23
25 1 2 0 2 23 24
26 1 2 0 2 24 25
27 1 2 0 2 25 26
28 1 2 0 2 26 27
29 1 2 0 2 27 28
30 1 2 0 2 28 29
31 1 2 0 2 29 30
32 1 2 0 2 30 4
33 1 2 0 3 3 31
34 1 2 0 3 31 32
35 1 2 0 3 32 33
36 1 2 0 3 33 34
37 1 2 0 3 34 35
38 1 2 0 3 35 36
39 1 2 0 3 36 37
40 1 2 0 3 37 38
41 1 2 0 3 38 39
42 1 2 0 3 39 40
43 1 2 0 3 40 41
44 1 2 0 3 41 42
45 1 2 0 3 42 43
46 1 2 0 3 43 4
47 1 2 0 4 3 44
48 1 2 0 4 44 45
49 1 2 0 4 45 46
50 1 2 0 4 46 47
51 1 2 0 4 47 48
52 1 2 0 4 48 49
53 1 2 0 4 49 50
54 1 2 0 4 50 51
55 1 2 0 4 51 52
56 1 2 0 4 52 53
57 1 2 0 4 53 54
58 1 2 0 4 54 55
59 1 2 0 4 55 56
60 1 2 0 4 56 2
61 3 2 0 1 138 161 224 81
62 3 2 0 1 139 162 223 78
63 3 2 0 1 16 254 134 15
64 3 2 0 1 55 255 135 54
65 3 2 0 1 32 251 131 33
66 3 2 0 1 45 46 130 250
67 3 2 0 1 42 41 137 257
68 3 2 0 1 6 7 132 252
69 3 2 0 1 29 256 136 28
70 3 2 0 1 19 20 133 253
71 3 2 0 1 178 110 182 49
72 3 2 0 1 181 113 185 23
73 3 2 0 1 178 86 189 110
74 3 2 0 1 181 89 192 113
75 3 2 0 1 199 136 265 69
76 3 2 0 1 198 68 264 133
77 3 2 0 1 262 66 217 131
78 3 2 0 1 263 132 218 67
79 3 2 0 1 202 47 48 146
80 3 2 0 1 203 147 35 34
81 3 2 0 1 204 8 9 148
82 3 2 0 1 205 21 22 149
83 3 2 0 1 108 169 157 277
84 3 2 0 1 177 71 233 123
85 3 2 0 1 130 196 66 262
86 3 2 0 1 135 263 67 197
87 3 2 0 1 155 279 107 168
88 3 2 0 1 158 280 109 170
89 3 2 0 1 188 58 235 125
90 3 2 0 1 84 246 128 175
91 3 2 0 1 236 71 166 127
92 3 2 0 1 154 124 212 57
93 3 2 0 1 275 124 201 72
94 3 2 0 1 166 122 232 83
95 3 2 0 1 175 123 233 84
96 3 2 0 1 176 122 177 57
97 3 2 0 1 154 57 177 123
98 3 2 0 1 167 85 201 124
99 3 2 0 1 59 186 119 272
100 3 2 0 1 61 187 121 261
101 3 2 0 1 165 125 235 82
102 3 2 0 1 145 211 100 231
103 3 2 0 1 58 188 114 259
104 3 2 0 1 58 259 118 173
105 3 2 0 1 204 148 193 92
106 3 2 0 1 112 10 11 180
107 3 2 0 1 111 179 37 36
108 3 2 0 1 51 52 162 139
109 3 2 0 1 25 26 161 138
110 3 2 0 1 88 111 151 190
111 3 2 0 1 87 191 152 112
112 3 2 0 1 260 174 249 60
113 3 2 0 1 189 150 266 110
114 3 2 0 1 192 153 269 113
115 3 2 0 1 57 212 106 176
116 3 2 0 1 211 145 167 73
117 3 2 0 1 59 272 115 159
118 3 2 0 1 60 172 116 260
119 3 2 0 1 134 264 68 219
120 3 2 0 1 137 220 69 265
121 3 2 0 1 196 130 202 90
122 3 2 0 1 217 91 203 131
123 3 2 0 1 218 132 204 92
124 3 2 0 1 219 95 208 134
125 3 2 0 1 197 94 207 135
126 3 2 0 1 220 137 209 97
127 3 2 0 1 199 96 206 136
128 3 2 0 1 198 133 205 93
129 3 2 0 1 210 101 258 156
130 3 2 0 1 166 83 245 127
131 3 2 0 1 262 131 251 102
132 3 2 0 1 263 104 252 132
133 3 2 0 1 264 103 253 133
134 3 2 0 1 265 136 256 105
135 3 2 0 1 165 82 243 126
136 3 2 0 1 261 160 200 61
137 3 2 0 1 13 140 229 12
138 3 2 0 1 39 38 228 141
139 3 2 0 1 202 146 221 90
140 3 2 0 1 205 149 222 93
141 3 2 0 1 167 145 170 85
142 3 2 0 1 237 70 171 142
143 3 2 0 1 203 91 225 147
144 3 2 0 1 249 128 246 60
145 3 2 0 1 248 126 275 72
146 3 2 0 1 165 126 210 63
147 3 2 0 1 175 128 211 73
148 3 2 0 1 248 72 201 129
149 3 2 0 1 70 232 122 176
150 3 2 0 1 124 154 73 167
151 3 2 0 1 85 247 129 201
152 3 2 0 1 281 79 242 140
153 3 2 0 1 282 141 241 80
154 3 2 0 1 78 239 227 139
155 3 2 0 1 81 240 226 138
156 3 2 0 1 140 242 87 229
157 3 2 0 1 141 228 88 241
158 3 2 0 1 168 62 189 155
159 3 2 0 1 210 156 190 63
160 3 2 0 1 169 64 191 157
161 3 2 0 1 170 65 192 158
162 3 2 0 1 152 238 99 244
163 3 2 0 1 18 214 17 1
164 3 2 0 1 31 3 44 213
165 3 2 0 1 30 4 43 216
166 3 2 0 1 5 215 56 2
167 3 2 0 1 171 82 235 142
168 3 2 0 1 168 83 232 143
169 3 2 0 1 169 84 233 144
170 3 2 0 1 59 159 99 276
171 3 2 0 1 123 175 73 154
172 3 2 0 1 214 18 19 253
173 3 2 0 1 213 44 45 250
174 3 2 0 1 213 251 32 31
175 3 2 0 1 215 5 6 252
176 3 2 0 1 216 256 29 30
177 3 2 0 1 215 255 55 56
178 3 2 0 1 216 43 42 257
179 3 2 0 1 214 254 16 17
180 3 2 0 1 129 247 61 200
181 3 2 0 1 76 159 115 193
182 3 2 0 1 261 117 195 160
183 3 2 0 1 118 221 74 173
184 3 2 0 1 260 120 222 174
185 3 2 0 1 221 146 266 74
186 3 2 0 1 225 75 267 147
187 3 2 0 1 193 148 268 76
188 3 2 0 1 222 149 269 77
189 3 2 0 1 169 144 238 64
190 3 2 0 1 168 143 230 62
191 3 2 0 1 170 145 231 65
192 3 2 0 1 237 143 232 70
193 3 2 0 1 142 234 98 237
194 3 2 0 1 71 236 144 233
195 3 2 0 1 230 150 189 62
196 3 2 0 1 165 63 190 151
197 3 2 0 1 238 152 191 64
198 3 2 0 1 231 153 192 65
199 3 2 0 1 58 234 142 235
200 3 2 0 1 267 75 278 151
201 3 2 0 1 224 161 206 96
202 3 2 0 1 26 27 206 161
203 3 2 0 1 223 162 207 94
204 3 2 0 1 52 53 207 162
205 3 2 0 1 13 14 208 163
206 3 2 0 1 39 164 209 40
207 3 2 0 1 139 227 50 51
208 3 2 0 1 138 226 24 25
209 3 2 0 1 266 150 270 74
210 3 2 0 1 269 153 271 77
211 3 2 0 1 268 152 244 76
212 3 2 0 1 150 230 98 270
213 3 2 0 1 153 231 100 271
214 3 2 0 1 189 86 239 155
215 3 2 0 1 190 156 241 88
216 3 2 0 1 191 87 242 157
217 3 2 0 1 192 89 240 158
218 3 2 0 1 127 276 99 236
219 3 2 0 1 241 156 258 80
220 3 2 0 1 78 279 155 239
221 3 2 0 1 81 280 158 240
222 3 2 0 1 79 277 157 242
223 3 2 0 1 60 246 108 172
224 3 2 0 1 13 163 281 140
225 3 2 0 1 39 141 282 164
226 3 2 0 1 151 278 125 165
227 3 2 0 1 114 225 91 217
228 3 2 0 1 146 48 49 182
229 3 2 0 1 111 36 35 183
230 3 2 0 1 112 184 9 10
231 3 2 0 1 149 22 23 185
232 3 2 0 1 71 177 122 166
233 3 2 0 1 124 275 106 212
234 3 2 0 1 58 173 98 234
235 3 2 0 1 59 276 107 186
236 3 2 0 1 61 247 109 187
237 3 2 0 1 70 176 106 171
238 3 2 0 1 49 50 227 178
239 3 2 0 1 38 37 179 228
240 3 2 0 1 12 229 180 11
241 3 2 0 1 23 24 226 181
242 3 2 0 1 208 95 281 163
243 3 2 0 1 209 164 282 97
244 3 2 0 1 90 221 118 196
245 3 2 0 1 93 222 120 198
246 3 2 0 1 119 223 94 197
247 3 2 0 1 121 224 96 199
248 3 2 0 1 250 102 251 213
249 3 2 0 1 252 104 255 215
250 3 2 0 1 253 103 254 214
251 3 2 0 1 256 216 257 105
252 3 2 0 1 83 168 107 245
253 3 2 0 1 84 169 108 246
254 3 2 0 1 85 170 109 247
255 3 2 0 1 119 186 78 223
256 3 2 0 1 81 224 121 187
257 3 2 0 1 82 171 106 243
258 3 2 0 1 76 244 99 159
259 3 2 0 1 116 172 79 194
260 3 2 0 1 92 193 115 218
261 3 2 0 1 116 194 95 219
262 3 2 0 1 117 220 97 195
263 3 2 0 1 130 46 47 202
264 3 2 0 1 131 203 34 33
265 3 2 0 1 132 7 8 204
266 3 2 0 1 133 20 21 205
267 3 2 0 1 136 206 27 28
268 3 2 0 1 135 207 53 54
269 3 2 0 1 134 208 14 15
270 3 2 0 1 137 41 40 209
271 3 2 0 1 200 160 258 101
272 3 2 0 1 195 80 258 160
273 3 2 0 1 126 248 101 210
274 3 2 0 1 130 262 102 250
275 3 2 0 1 103 264 134 254
276 3 2 0 1 104 263 135 255
277 3 2 0 1 105 257 137 265
278 3 2 0 1 75 188 125 278
279 3 2 0 1 222 77 271 174
280 3 2 0 1 108 277 79 172
281 3 2 0 1 239 86 178 227
282 3 2 0 1 111 88 228 179
283 3 2 0 1 240 89 181 226
284 3 2 0 1 112 180 229 87
285 3 2 0 1 74 270 98 173
286 3 2 0 1 249 174 271 100
287 3 2 0 1 114 188 75 225
288 3 2 0 1 120 260 116 273
289 3 2 0 1 121 274 117 261
290 3 2 0 1 35 147 267 183
291 3 2 0 1 9 184 268 148
292 3 2 0 1 146 182 110 266
293 3 2 0 1 151 111 183 267
294 3 2 0 1 152 268 184 112
295 3 2 0 1 149 185 113 269
296 3 2 0 1 129 200 101 248
297 3 2 0 1 128 249 100 211
298 3 2 0 1 143 237 98 230
299 3 2 0 1 144 236 99 238
300 3 2 0 1 66 259 114 217
301 3 2 0 1 115 272 67 218
302 3 2 0 1 68 273 116 219
303 3 2 0 1 117 274 69 220
304 3 2 0 1 118 259 66 196
305 3 2 0 1 119 197 67 272
306 3 2 0 1 120 273 68 198
307 3 2 0 1 121 199 69 274
308 3 2 0 1 78 186 107 279
309 3 2 0 1 81 187 109 280
310 3 2 0 1 95 194 79 281
311 3 2 0 1 97 282 80 195
312 3 2 0 1 126 243 106 275
313 3 2 0 1 127 245 107 276
$EndElements
