$MeshFormat
2.2 0 8
$EndMeshFormat
$Nodes
195
1 0 0 0
2 0 1 0
3 1 1 0
4 1 0 0
5 0 0.08333333333333318 0
6 0 0.1666666666666664 0
7 0 0.2499999999999997 0
8 0 0.333333333333333 0
9 0 0.4166666666666664 0
10 0 0.4999999999999998 0
11 0 0.5833333333333331 0
12 0 0.6666666666666665 0
13 0 0.7499999999999999 0
14 0 0.8333333333333331 0
15 0 0.9166666666666666 0
16 0.08333333333333318 1 0
17 0.1666666666666664 1 0
18 0.2499999999999997 1 0
19 0.333333333333333 1 0
20 0.4166666666666664 1 0
21 0.4999999999999998 1 0
22 0.5833333333333331 1 0
23 0.6666666666666665 1 0
24 0.7499999999999999 1 0
25 0.8333333333333331 1 0
26 0.9166666666666666 1 0
27 1 0.9166666666666669 0
28 1 0.8333333333333337 0
29 1 0.7500000000000003 0
30 1 0.666666666666667 0
31 1 0.5833333333333337 0
32 1 0.5000000000000002 0
33 1 0.4166666666666669 0
34 1 0.3333333333333335 0
35 1 0.2500000000000001 0
36 1 0.1666666666666669 0
37 1 0.08333333333333337 0
38 0.9166666666666669 0 0
39 0.8333333333333337 0 0
40 0.7500000000000003 0 0
41 0.666666666666667 0 0
42 0.5833333333333337 0 0
43 0.5000000000000002 0 0
44 0.4166666666666669 0 0
45 0.3333333333333335 0 0
46 0.2500000000000001 0 0
47 0.1666666666666669 0 0
48 0.08333333333333337 0 0
49 0.07177916530102657 0.5164602486569598 0
50 0.9190309185189977 0.4567860017031989 0
51 0.4997879771627874 0.07026514975468995 0
52 0.5399308996589631 0.9215556106540455 0
53 0.07914863486581147 0.3080403961227777 0
54 0.3158609226349209 0.9275431323653939 0
55 0.9261690899479333 0.6844542697089414 0
56 0.7448359777393931 0.06642985887730335 0
57 0.9219544307090919 0.3062034972036451 0
58 0.3299004519066234 0.07189345647423556 0
59 0.7030548397240286 0.9249786989735567 0
60 0.0721375728405072 0.6755385692866376 0
61 0.07422818808588627 0.839375943711274 0
62 0.1609419848045134 0.07376546975069281 0
63 0.8402299024458197 0.9231560101261431 0
64 0.9252130290585665 0.1486480284497209 0
65 0.465311912856251 0.9315322908166976 0
66 0.4999086736256467 0.847962507322631 0
67 0.5674899014588956 0.8233850645668864 0
68 0.5271248139693544 0.7530218969099549 0
69 0.465751580141759 0.7790153932083181 0
70 0.4966030210789702 0.7045457867602053 0
71 0.5854977269094749 0.7153147575310137 0
72 0.5219148419092531 0.6403148705611376 0
73 0.4375347663217473 0.6427924190495736 0
74 0.497570704128229 0.5685178017564414 0
75 0.4377410929800897 0.5705520964616967 0
76 0.4392312121783915 0.4980344750057966 0
77 0.5358627678220522 0.4979140118535633 0
78 0.3592957198844557 0.5017998586388962 0
79 0.438304761299227 0.4283722820196781 0
80 0.3645568305904557 0.653420359119531 0
81 0.3575122627035547 0.4276341926990621 0
82 0.3542719646956551 0.3571529692621722 0
83 0.4381505021764643 0.3587143288068171 0
84 0.6509974445254523 0.6773964964059132 0
85 0.721363861690785 0.6489101205307962 0
86 0.2924315333235339 0.3619032008814498 0
87 0.2824736756940796 0.5110817549203689 0
88 0.4342697337844205 0.2855824857126251 0
89 0.5252523462232481 0.2865554568437857 0
90 0.7618487930923534 0.7216547414571699 0
91 0.7833541362319079 0.6184772138606615 0
92 0.7496506517150195 0.5718668878964296 0
93 0.5384531467746235 0.3795091339622241 0
94 0.6146535808932102 0.2845874105513427 0
95 0.6365691095743334 0.3613100734654257 0
96 0.6991868429067317 0.2809611616063711 0
97 0.7197190255243762 0.3528557805624356 0
98 0.7771948491414062 0.2791148438391367 0
99 0.665319442288771 0.435803046872148 0
100 0.7461011636648547 0.4263984521970305 0
101 0.6006585984021841 0.2108114060615189 0
102 0.8381902811954166 0.5813077230141451 0
103 0.6983392277511333 0.7559449652418857 0
104 0.7917425248763472 0.7737984939694711 0
105 0.425705434619692 0.2129845813085088 0
106 0.3351853258553624 0.2162873689284498 0
107 0.8701656129481772 0.6250696932968667 0
108 0.90256298097891 0.5448883758701194 0
109 0.7754856031444761 0.5140208772577638 0
110 0.6841443265955862 0.5063345915393979 0
111 0.8237742575845521 0.4117860588896639 0
112 0.7949290871310752 0.3453190378908456 0
113 0.8490066414963238 0.2859188774252625 0
114 0.7655825301234962 0.2078737288245381 0
115 0.8450910666281243 0.2125157561219335 0
116 0.8390684136734865 0.1217456012449019 0
117 0.7561700011993576 0.8327814746476742 0
118 0.8457408757974119 0.8454838110814816 0
119 0.8483363108543449 0.7698362325579995 0
120 0.9232104904214788 0.8415637707949132 0
121 0.839192048001564 0.6826160714550482 0
122 0.07383643728389155 0.4599933104050924 0
123 0.1422143298222545 0.5228959839235821 0
124 0.1431919752230714 0.5993095632269602 0
125 0.141917834252492 0.4407193482949036 0
126 0.2110862494735296 0.5204089293387201 0
127 0.214335973156516 0.5965050517240333 0
128 0.2869199197907161 0.5879019564172061 0
129 0.2904352845552437 0.6664789064592281 0
130 0.2169188102546549 0.6760231007803594 0
131 0.2979179179607191 0.7474317391600802 0
132 0.2213154004396443 0.7582407225958918 0
133 0.3212270817644396 0.8412075260586298 0
134 0.2292567903022 0.8418379767279524 0
135 0.3819294462757017 0.88275901189814 0
136 0.3988678914706172 0.8014600732980969 0
137 0.2066844912504071 0.4643032174855127 0
138 0.1504468253720204 0.8418955063397673 0
139 0.1574105870912314 0.9216711782037025 0
140 0.1469917676384578 0.7599805773719793 0
141 0.1447116913605024 0.6782372116985941 0
142 0.07177887896283047 0.5935464483083049 0
143 0.6284357703646588 0.5079755106052963 0
144 0.2452896925895609 0.07256290690345252 0
145 0.1582293423414763 0.1484557870184154 0
146 0.0778961856226601 0.1559027107257726 0
147 0.157986058295587 0.2244919100031018 0
148 0.2450941224671687 0.2208061012931423 0
149 0.1560992479776763 0.2971407905699306 0
150 0.6841308413819637 0.2093453324603429 0
151 0.6664926991947441 0.06864696695718714 0
152 0.5843797356180641 0.06960589371323778 0
153 0.7603865336486182 0.9233804684449287 0
154 0.6100237773329651 0.8997130162936783 0
155 0.9027912902094999 0.3867214241965289 0
156 0.4157831133858079 0.07103652708764202 0
157 0.6750240115427271 0.8672591281372085 0
158 0.6331710330681215 0.7909778680004833 0
159 0.5141114951685072 0.2122547017974091 0
160 0.2443485333217532 0.1462003205019283 0
161 0.09696470501549831 0.3739918948416128 0
162 0.6084868936164844 0.5784842296060002 0
163 0.5000610673979105 0.4349422974190326 0
164 0.6962630281549529 0.5768827270449273 0
165 0.07324688504836002 0.7564480547672066 0
166 0.4457404731833557 0.7128118781250337 0
167 0.5969158420567219 0.4591041294880197 0
168 0.1966253074171135 0.3774358857640305 0
169 0.2484156247486691 0.3095481926007941 0
170 0.3452560947215205 0.2898407288695782 0
171 0.3317220518040027 0.1440665182775893 0
172 0.7531279079794735 0.1352486404079177 0
173 0.4191535156451257 0.1421291583194052 0
174 0.5055305002667616 0.1408762697491306 0
175 0.590438700449889 0.1398375338887261 0
176 0.6733146683765322 0.1383556112942151 0
177 0.8008607046188867 0.06420257803036289 0
178 0.8711566355143773 0.0667883598624725 0
179 0.8612583115868171 0.4793506109541771 0
180 0.4327970928532059 0.866977059080595 0
181 0.846763371749468 0.3369846312020156 0
182 0.3762695559813602 0.7296504499807203 0
183 0.9237873101308883 0.7609067498832058 0
184 0.07808072846141345 0.2345891051669327 0
185 0.2387913014317291 0.922504467293082 0
186 0.9231595330327603 0.2281996275970643 0
187 0.3848060734759248 0.9354240684692454 0
188 0.9239531970838255 0.6101754673845209 0
189 0.1516133201359059 0.3499578787083772 0
190 0.3619584177680121 0.5782625866624154 0
191 0.2658150720503293 0.4269874102527879 0
192 0.9202648262077374 0.9205684781849099 0
193 0.07856141874890604 0.9195693594239764 0
194 0.08036165078637553 0.07809820059812506 0
195 0.9250489013786745 0.07366793952456613 0
$EndNodes
$Elements
170
1 3 2 5 1 32 50 179 108
2 3 2 5 1 180 135 187 65
3 3 2 5 1 17 139 193 16
4 3 2 5 1 28 120 192 27
5 3 2 5 1 6 146 194 5
6 3 2 5 1 129 80 190 128
7 3 2 5 1 155 111 179 50
8 3 2 5 1 169 149 189 168
9 3 2 5 1 113 57 186 115
10 3 2 5 1 69 166 182 136
11 3 2 5 1 116 115 186 64
12 3 2 5 1 149 147 184 53
13 3 2 5 1 121 119 183 55
14 3 2 5 1 133 134 185 54
15 3 2 5 1 125 123 126 137
16 3 2 5 1 99 110 109 100
17 3 2 5 1 140 165 61 138
18 3 2 5 1 162 164 110 143
19 3 2 5 1 162 143 167 77
20 3 2 5 1 153 117 157 59
21 3 2 5 1 24 25 63 153
22 3 2 5 1 119 104 117 118
23 3 2 5 1 158 67 154 157
24 3 2 5 1 130 127 124 141
25 3 2 5 1 103 90 85 84
26 3 2 5 1 11 12 60 142
27 3 2 5 1 157 154 23 59
28 3 2 5 1 77 163 79 76
29 3 2 5 1 141 60 165 140
30 3 2 5 1 95 99 100 97
31 3 2 5 1 124 142 60 141
32 3 2 5 1 77 167 93 163
33 3 2 5 1 52 22 23 154
34 3 2 5 1 40 41 151 56
35 3 2 5 1 42 43 51 152
36 3 2 5 1 46 47 62 144
37 3 2 5 1 66 52 154 67
38 3 2 5 1 98 113 115 114
39 3 2 5 1 49 123 125 122
40 3 2 5 1 9 161 53 8
41 3 2 5 1 144 58 45 46
42 3 2 5 1 93 89 88 83
43 3 2 5 1 95 94 89 93
44 3 2 5 1 85 90 121 91
45 3 2 5 1 121 107 102 91
46 3 2 5 1 97 96 94 95
47 3 2 5 1 112 98 96 97
48 3 2 5 1 132 131 129 130
49 3 2 5 1 141 140 132 130
50 3 2 5 1 134 133 131 132
51 3 2 5 1 49 122 9 10
52 3 2 5 1 156 51 43 44
53 3 2 5 1 142 124 123 49
54 3 2 5 1 72 74 75 73
55 3 2 5 1 101 159 89 94
56 3 2 5 1 97 100 111 112
57 3 2 5 1 61 165 13 14
58 3 2 5 1 12 13 165 60
59 3 2 5 1 152 151 41 42
60 3 2 5 1 58 156 44 45
61 3 2 5 1 160 144 62 145
62 3 2 5 1 103 84 71 158
63 3 2 5 1 63 118 117 153
64 3 2 5 1 155 50 32 33
65 3 2 5 1 57 155 33 34
66 3 2 5 1 67 68 69 66
67 3 2 5 1 68 70 166 69
68 3 2 5 1 72 162 77 74
69 3 2 5 1 83 82 81 79
70 3 2 5 1 93 83 79 163
71 3 2 5 1 160 145 147 148
72 3 2 5 1 71 84 162 72
73 3 2 5 1 162 84 85 164
74 3 2 5 1 150 101 94 96
75 3 2 5 1 96 98 114 150
76 3 2 5 1 110 99 167 143
77 3 2 5 1 153 59 23 24
78 3 2 5 1 76 79 81 78
79 3 2 5 1 158 157 117 103
80 3 2 5 1 125 161 9 122
81 3 2 5 1 88 89 159 105
82 3 2 5 1 119 121 90 104
83 3 2 5 1 90 103 117 104
84 3 2 5 1 130 129 128 127
85 3 2 5 1 140 138 134 132
86 3 2 5 1 142 49 10 11
87 3 2 5 1 93 167 99 95
88 3 2 5 1 65 21 22 52
89 3 2 5 1 72 70 68 71
90 3 2 5 1 67 158 71 68
91 3 2 5 1 72 73 166 70
92 3 2 5 1 75 74 77 76
93 3 2 5 1 91 92 164 85
94 3 2 5 1 109 110 164 92
95 3 2 5 1 127 126 123 124
96 3 2 5 1 87 126 127 128
97 3 2 5 1 91 102 109 92
98 3 2 5 1 133 136 182 131
99 3 2 5 1 170 106 148 169
100 3 2 5 1 173 156 58 171
101 3 2 5 1 169 86 82 170
102 3 2 5 1 148 106 171 160
103 3 2 5 1 105 106 170 88
104 3 2 5 1 176 150 114 172
105 3 2 5 1 133 54 187 135
106 3 2 5 1 133 135 180 136
107 3 2 5 1 100 109 179 111
108 3 2 5 1 147 149 169 148
109 3 2 5 1 144 160 171 58
110 3 2 5 1 83 88 170 82
111 3 2 5 1 115 116 172 114
112 3 2 5 1 174 51 156 173
113 3 2 5 1 173 105 159 174
114 3 2 5 1 101 175 174 159
115 3 2 5 1 172 56 151 176
116 3 2 5 1 171 106 105 173
117 3 2 5 1 175 152 51 174
118 3 2 5 1 152 175 176 151
119 3 2 5 1 150 176 175 101
120 3 2 5 1 56 177 39 40
121 3 2 5 1 52 66 180 65
122 3 2 5 1 155 181 112 111
123 3 2 5 1 116 178 39 177
124 3 2 5 1 30 55 183 29
125 3 2 5 1 8 53 184 7
126 3 2 5 1 19 54 185 18
127 3 2 5 1 34 35 186 57
128 3 2 5 1 21 65 187 20
129 3 2 5 1 149 53 161 189
130 3 2 5 1 113 181 155 57
131 3 2 5 1 73 75 190 80
132 3 2 5 1 128 190 78 87
133 3 2 5 1 138 61 193 139
134 3 2 5 1 15 2 16 193
135 3 2 5 1 26 3 27 192
136 3 2 5 1 48 1 5 194
137 3 2 5 1 118 63 192 120
138 3 2 5 1 145 62 194 146
139 3 2 5 1 37 4 38 195
140 3 2 5 1 121 55 188 107
141 3 2 5 1 56 172 116 177
142 3 2 5 1 126 87 191 137
143 3 2 5 1 78 81 191 87
144 3 2 5 1 108 179 109 102
145 3 2 5 1 73 80 182 166
146 3 2 5 1 32 108 188 31
147 3 2 5 1 136 180 66 69
148 3 2 5 1 98 112 181 113
149 3 2 5 1 55 30 31 188
150 3 2 5 1 80 129 131 182
151 3 2 5 1 120 28 29 183
152 3 2 5 1 139 17 18 185
153 3 2 5 1 145 146 184 147
154 3 2 5 1 118 120 183 119
155 3 2 5 1 146 6 7 184
156 3 2 5 1 138 139 185 134
157 3 2 5 1 64 186 35 36
158 3 2 5 1 54 19 20 187
159 3 2 5 1 82 86 191 81
160 3 2 5 1 102 107 188 108
161 3 2 5 1 168 189 161 125
162 3 2 5 1 76 78 190 75
163 3 2 5 1 169 168 191 86
164 3 2 5 1 36 37 195 64
165 3 2 5 1 14 15 193 61
166 3 2 5 1 25 26 192 63
167 3 2 5 1 47 48 194 62
168 3 2 5 1 125 137 191 168
169 3 2 5 1 39 178 195 38
170 3 2 5 1 116 64 195 178
$EndElements
